<?xml version="1.0" encoding="utf-8"?>
<!-- Generator: Adobe Illustrator 16.0.0, SVG Export Plug-In . SVG Version: 6.00 Build 0)  -->
<!DOCTYPE svg PUBLIC "-//W3C//DTD SVG 1.1//EN" "http://www.w3.org/Graphics/SVG/1.1/DTD/svg11.dtd">
<svg version="1.1" id="Layer_1" xmlns="http://www.w3.org/2000/svg" xmlns:xlink="http://www.w3.org/1999/xlink" x="0px" y="0px"
	 width="841.889px" height="595.281px" viewBox="0 0 841.889 595.281" enable-background="new 0 0 841.889 595.281"
	 xml:space="preserve">
<g>
	<line fill="#E8E8E8" x1="699.831" y1="392.669" x2="699.826" y2="392.683"/>
	<line fill="#E8E8E8" x1="699.832" y1="392.665" x2="699.831" y2="392.669"/>
	
		<rect x="164.437" y="205.623" transform="matrix(-0.4355 0.9002 -0.9002 -0.4355 738.4898 -51.8418)" fill="none" width="442.125" height="0.001"/>
	
		<rect x="270.92" y="416.097" transform="matrix(0.4355 -0.9002 0.9002 0.4355 -214.4354 490.2335)" fill="none" width="25.499" height="0"/>
	<polygon fill="none" points="141.587,249.853 139.549,201.059 139.548,201.061 142.686,276.184 	"/>
	<polygon fill="none" points="568.072,461.064 699.823,392.689 699.826,392.683 568.067,461.062 	"/>
	<polygon fill="none" points="231.213,68.112 230.849,71.173 187.451,436.188 187.452,436.188 231.214,68.111 	"/>
	<polygon fill="none" points="289.223,220.513 229.866,427.294 229.868,427.294 289.223,220.518 	"/>
	<polygon fill="none" points="289.223,220.518 350.096,8.452 350.095,8.452 289.223,220.513 	"/>
	<path fill="none" d="M465.14,588.711L465.14,588.711c1.596-14.921,7.813-29.224,17.374-42.553
		C472.952,559.487,466.735,573.79,465.14,588.711z"/>
	
		<rect x="378.338" y="320.203" transform="matrix(-0.7518 0.6594 -0.6594 -0.7518 1195.2769 190.5176)" fill="none" width="366.891" height="0.003"/>
	<path fill="none" d="M499.986,526.176C499.987,526.175,499.987,526.175,499.986,526.176c-15.023-6.47-32.012-12.982-50.28-20.391
		C467.974,513.193,484.962,519.706,499.986,526.176z"/>
	<polygon fill="none" points="142.686,276.184 148.452,414.207 148.454,414.211 141.587,249.853 	"/>
	<polygon fill="#D8D8D8" points="231.213,68.112 231.213,68.112 230.849,71.173 	"/>
	<polygon fill="#D8D8D8" points="328.667,444.947 512.715,196.927 328.666,444.947 	"/>
	<path fill="#D8D8D8" d="M588.514,472.888L588.514,472.888c27.83-10.428,56.306-16.541,80.703-17.063
		c12.573-19.585,22.888-40.756,30.606-63.136l-131.752,68.375C575.212,464.596,582.054,468.535,588.514,472.888z"/>
	<path fill="#D8D8D8" d="M289.223,404.62L481.776,6.628c-19.943-4.239-40.623-6.487-61.831-6.487
		c-24.064,0-47.449,2.893-69.848,8.312l-60.874,212.066V404.62z"/>
	<path fill="#D8D8D8" d="M278.117,427.574l11.105-22.954V220.518l-59.355,206.775c9.225-0.984,18.988-1.498,29.318-1.498
		C265.41,425.796,271.729,426.429,278.117,427.574z"/>
	<polygon fill="#D8D8D8" points="139.551,201.053 139.549,201.059 141.587,249.853 	"/>
	<path fill="#D8D8D8" d="M187.436,436.194c0.005-0.002,0.01-0.004,0.016-0.006l43.397-365.015L187.436,436.194z"/>
	<path fill="#D8D8D8" d="M148.454,414.211c4.735,10.871,10.101,21.402,16.056,31.548c7.056-3.644,14.693-6.844,22.924-9.564
		l43.777-368.082c-41.768,34.609-73.874,80.47-91.662,132.94l2.037,48.8L148.454,414.211z"/>
	<polygon fill="#D8D8D8" points="187.436,436.194 230.849,71.173 231.213,68.112 231.212,68.113 187.435,436.194 	"/>
	<path fill="#D8D8D8" d="M608.448,67.919l-95.733,129.008l-184.048,248.02c12.759,5.986,25.564,12.858,38.252,19.843
		c15.518-11.755,34.622-19.576,56.944-23.625l275.838-241.92C681.759,147.435,649.846,102.151,608.448,67.919z"/>
	<path fill="#E8E8E8" d="M139.548,201.061c-10.116,29.842-15.603,61.82-15.603,95.08c0,41.967,8.753,81.884,24.502,118.053
		l-5.76-138.009L139.548,201.061z"/>
	<polygon fill="#E8E8E8" points="142.686,276.184 148.447,414.193 148.452,414.207 	"/>
	<path fill="#E8E8E8" d="M289.223,430.044c12.976,3.424,26.184,8.683,39.443,14.903l184.049-248.02l95.733-129.009
		c-36.038-29.8-79.258-51.213-126.67-61.29L289.223,404.651V430.044z"/>
	<path fill="#E8E8E8" d="M278.132,427.576c3.675,0.659,7.373,1.487,11.091,2.468v-25.393L278.132,427.576z"/>
	<polygon fill="#E8E8E8" points="289.223,404.648 481.778,6.628 481.777,6.628 289.223,404.62 	"/>
	<polygon fill="#E8E8E8" points="289.223,404.62 278.117,427.574 278.131,427.576 289.223,404.648 	"/>
	
		<rect x="270.943" y="416.112" transform="matrix(0.4355 -0.9002 0.9002 0.4355 -214.4425 490.2648)" fill="#D8D8D8" width="25.47" height="0.001"/>
	
		<rect x="164.424" y="205.639" transform="matrix(-0.4355 0.9002 -0.9002 -0.4355 738.4987 -51.8291)" fill="#D8D8D8" width="442.153" height="0.001"/>
	<polygon fill="#D8D8D8" points="608.448,67.919 608.448,67.919 512.715,196.927 	"/>
	<path fill="#E8E8E8" d="M350.095,8.452c-21.282,5.149-41.665,12.595-60.873,22.066v189.994L350.095,8.452z"/>
	<path fill="#E8E8E8" d="M289.223,30.519c-20.836,10.274-40.295,22.914-58.009,37.592l-43.762,368.078
		c12.67-4.187,26.758-7.225,42.414-8.895l59.357-206.781V30.519z"/>
	<path fill="#E8E8E8" d="M462.578,437.885c36.695,0,74.014,7.617,105.468,23.168l131.786-68.388
		c10.433-30.256,16.112-62.725,16.112-96.524c0-33.933-5.727-66.523-16.237-96.881L423.916,441.155
		C435.895,438.986,448.784,437.885,462.578,437.885z"/>
	<path fill="#E8E8E8" d="M423.912,441.156l275.794-241.897c-0.001-0.004-0.002-0.007-0.004-0.011L423.866,441.164
		C423.882,441.161,423.898,441.159,423.912,441.156z"/>
	<path fill="#E8E8E8" d="M568.05,461.053c0.006,0.003,0.011,0.006,0.017,0.009l131.76-68.379c0.001-0.005,0.003-0.01,0.005-0.015
		L568.05,461.053z"/>
	<rect x="561.809" y="136.784" fill="#E8E8E8" width="0.001" height="366.847"/>
	<rect x="633.937" y="352.627" fill="#E8E8E8" width="0.004" height="148.468"/>
	<rect x="409.286" y="453.951" fill="#D8D8D8" width="0.002" height="0.069"/>
	
		<linearGradient id="SVGID_1_" gradientUnits="userSpaceOnUse" x1="384.343" y1="148.7551" x2="384.343" y2="60.4651" gradientTransform="matrix(1 0 0 -1 24.9448 586.6401)">
		<stop  offset="0" style="stop-color:#93BC19"/>
		<stop  offset="1" style="stop-color:#638A35"/>
	</linearGradient>
	<rect x="409.286" y="453.951" fill="url(#SVGID_1_)" width="0.002" height="0.069"/>
	<path fill="#D8D8D8" d="M583.725,474.742c1.595-0.628,3.189-1.254,4.789-1.854c-6.46-4.354-13.302-8.292-20.442-11.824
		l-6.385,3.313C569.415,467.413,576.782,470.878,583.725,474.742z"/>
	<path fill="#D8D8D8" d="M409.254,453.977l14.609-12.812c-22.323,4.049-41.426,11.87-56.944,23.625
		c2.497,1.375,4.989,2.753,7.476,4.13C384.476,462.489,396.128,457.517,409.254,453.977z"/>
	<path fill="#E8E8E8" d="M561.693,464.349l6.354-3.297c-31.454-15.551-68.772-23.168-105.468-23.168
		c-13.794,0-26.684,1.102-38.662,3.271l-14.603,12.809c16.424-4.422,35.146-6.614,55.993-6.614c33.376,0,67.295,5.603,96.377,17.025
		l6.383-3.312c-0.006-0.003-0.011-0.006-0.017-0.009l-6.356,3.299L561.693,464.349z"/>
	<path fill="#E8E8E8" d="M409.309,453.965l14.603-12.809c-0.015,0.003-0.03,0.005-0.046,0.008l-14.609,12.813
		C409.274,453.972,409.292,453.969,409.309,453.965z"/>
	
		<linearGradient id="SVGID_2_" gradientUnits="userSpaceOnUse" x1="391.6404" y1="148.7551" x2="391.6404" y2="60.4651" gradientTransform="matrix(1 0 0 -1 24.9448 586.6401)">
		<stop  offset="0" style="stop-color:#93BC19"/>
		<stop  offset="1" style="stop-color:#638A35"/>
	</linearGradient>
	<path fill="url(#SVGID_2_)" d="M409.309,453.965l14.603-12.809c-0.015,0.003-0.03,0.005-0.046,0.008l-14.609,12.813
		C409.274,453.972,409.292,453.969,409.309,453.965z"/>
	<polygon fill="#E8E8E8" points="409.314,453.964 423.916,441.155 423.912,441.156 409.309,453.965 	"/>
	<g>
		<linearGradient id="SVGID_3_" gradientUnits="userSpaceOnUse" x1="477.717" y1="437.8845" x2="477.717" y2="526.1746">
			<stop  offset="0" style="stop-color:#93BC19"/>
			<stop  offset="1" style="stop-color:#638A35"/>
		</linearGradient>
		<path fill="url(#SVGID_3_)" d="M568.046,461.052c-31.454-15.551-68.772-23.168-105.468-23.168
			c-13.794,0-26.684,1.102-38.662,3.271l-0.005,0.004l0.001-0.001l-0.052,0.029l0.003-0.021l0.003-0.003
			c-0.001,0-0.002,0.001-0.003,0.001c-22.323,4.049-41.426,11.87-56.944,23.625c2.497,1.375,4.989,2.753,7.476,4.13
			c18.062,10.003,35.819,19.914,52.792,27.453c1.287,0.572,2.569,1.13,3.848,1.674c6.349,2.7,12.581,5.269,18.671,7.738
			c18.269,7.408,35.257,13.921,50.281,20.39c0.001-0.001,0.001-0.001,0.001-0.001c22.125-21.307,52.334-39.071,83.737-51.432
			c1.595-0.628,3.189-1.254,4.789-1.854c-6.46-4.354-13.302-8.292-20.442-11.824c-0.002,0-0.003-0.001-0.005-0.002
			c-0.006-0.003-0.011-0.006-0.017-0.009L568.046,461.052z"/>
		<linearGradient id="SVGID_4_" gradientUnits="userSpaceOnUse" x1="423.9143" y1="441.1589" x2="423.9143" y2="441.1387">
			<stop  offset="0" style="stop-color:#93BC19"/>
			<stop  offset="1" style="stop-color:#638A35"/>
		</linearGradient>
		<polygon fill="url(#SVGID_4_)" points="423.912,441.156 423.912,441.158 423.916,441.155 		"/>
	</g>
	
		<linearGradient id="SVGID_5_" gradientUnits="userSpaceOnUse" x1="250.7434" y1="160.844" x2="250.7434" y2="-8.6423" gradientTransform="matrix(1 0 0 -1 24.9448 586.6401)">
		<stop  offset="0" style="stop-color:#93BC19"/>
		<stop  offset="1" style="stop-color:#638A35"/>
	</linearGradient>
	<polygon fill="url(#SVGID_5_)" points="278.117,427.574 273.258,437.618 278.117,427.574 	"/>
	
		<rect x="325.029" y="446.777" transform="matrix(0.5959 -0.803 0.803 0.5959 -226.5232 443.3811)" fill="#D8D8D8" width="4.559" height="0.001"/>
	
		<linearGradient id="SVGID_6_" gradientUnits="userSpaceOnUse" x1="302.364" y1="160.844" x2="302.364" y2="-8.6423" gradientTransform="matrix(1 0 0 -1 24.9448 586.6401)">
		<stop  offset="0" style="stop-color:#93BC19"/>
		<stop  offset="1" style="stop-color:#638A35"/>
	</linearGradient>
	<polygon fill="url(#SVGID_6_)" points="328.666,444.947 325.949,448.608 325.95,448.608 328.667,444.947 	"/>
	<path fill="#D8D8D8" d="M259.186,425.796c-10.33,0-20.093,0.514-29.318,1.498l-3.942,13.732
		c13.732-2.224,28.885-3.429,45.606-3.429c0.573,0,1.149,0.011,1.726,0.021l4.859-10.044
		C271.729,426.429,265.41,425.796,259.186,425.796z"/>
	<path fill="#D8D8D8" d="M185.567,451.908L185.567,451.908l1.868-15.714c-8.231,2.721-15.868,5.921-22.924,9.564
		c2.456,4.184,5.012,8.301,7.665,12.351c4.226-2.217,8.68-4.292,13.406-6.19l1.87-15.73c-0.005,0.002-0.011,0.004-0.016,0.006
		L185.567,451.908z"/>
	<rect x="186.5" y="436.139" fill="#D8D8D8" width="0.001" height="15.825"/>
	
		<linearGradient id="SVGID_7_" gradientUnits="userSpaceOnUse" x1="161.5564" y1="160.844" x2="161.5564" y2="-8.6423" gradientTransform="matrix(1 0 0 -1 24.9448 586.6401)">
		<stop  offset="0" style="stop-color:#93BC19"/>
		<stop  offset="1" style="stop-color:#638A35"/>
	</linearGradient>
	<rect x="186.5" y="436.139" fill="url(#SVGID_7_)" width="0.001" height="15.825"/>
	<path fill="#D8D8D8" d="M328.667,444.947l-2.717,3.661c16.027,5.69,32.222,12.991,48.22,20.449c0.073-0.047,0.151-0.09,0.225-0.138
		c-2.487-1.377-4.979-2.755-7.476-4.13C354.231,457.805,341.426,450.933,328.667,444.947z"/>
	<polygon fill="#E8E8E8" points="278.117,427.574 273.258,437.618 273.273,437.618 278.131,427.576 	"/>
	
		<linearGradient id="SVGID_8_" gradientUnits="userSpaceOnUse" x1="250.7502" y1="160.844" x2="250.7502" y2="-8.6423" gradientTransform="matrix(1 0 0 -1 24.9448 586.6401)">
		<stop  offset="0" style="stop-color:#93BC19"/>
		<stop  offset="1" style="stop-color:#638A35"/>
	</linearGradient>
	<polygon fill="url(#SVGID_8_)" points="278.117,427.574 273.258,437.618 273.273,437.618 278.131,427.576 	"/>
	<path fill="#E8E8E8" d="M289.223,430.044v8.938c12.031,1.794,24.33,5.226,36.727,9.627l2.717-3.661
		C315.407,438.726,302.198,433.468,289.223,430.044z"/>
	<path fill="#E8E8E8" d="M278.132,427.576l-4.858,10.043c5.253,0.086,10.574,0.562,15.949,1.362v-8.938
		C285.505,429.063,281.807,428.235,278.132,427.576z"/>
	<rect x="273.269" y="437.617" fill="#D8D8D8" width="0.001" height="0.019"/>
	
		<linearGradient id="SVGID_9_" gradientUnits="userSpaceOnUse" x1="248.325" y1="160.844" x2="248.325" y2="20.219" gradientTransform="matrix(1 0 0 -1 24.9448 586.6401)">
		<stop  offset="0" style="stop-color:#93BC19"/>
		<stop  offset="1" style="stop-color:#638A35"/>
	</linearGradient>
	<rect x="273.269" y="437.617" fill="url(#SVGID_9_)" width="0.001" height="0.019"/>
	
		<rect x="270.125" y="432.597" transform="matrix(0.4355 -0.9002 0.9002 0.4355 -233.7862 492.3771)" fill="#D8D8D8" width="11.156" height="0.002"/>
	
		<linearGradient id="SVGID_10_" gradientUnits="userSpaceOnUse" x1="250.7581" y1="160.844" x2="250.7581" y2="-8.6423" gradientTransform="matrix(1 0 0 -1 24.9448 586.6401)">
		<stop  offset="0" style="stop-color:#93BC19"/>
		<stop  offset="1" style="stop-color:#638A35"/>
	</linearGradient>
	<polygon fill="url(#SVGID_10_)" points="278.131,427.576 273.273,437.618 273.274,437.619 278.132,427.576 	"/>
	<path fill="#E8E8E8" d="M185.582,451.92c11.805-4.742,25.206-8.441,40.342-10.894l3.942-13.732
		c-15.656,1.67-29.744,4.708-42.414,8.895L185.582,451.92z"/>
	<linearGradient id="SVGID_11_" gradientUnits="userSpaceOnUse" x1="332.2478" y1="425.7957" x2="332.2478" y2="592.1404">
		<stop  offset="0" style="stop-color:#93BC19"/>
		<stop  offset="1" style="stop-color:#638A35"/>
	</linearGradient>
	<path fill="url(#SVGID_11_)" d="M449.705,505.785c-6.09-2.47-12.322-5.038-18.671-7.738c-1.278-0.544-2.561-1.102-3.848-1.674
		c-16.973-7.539-34.73-17.45-52.792-27.453c-2.487-1.377-4.979-2.755-7.476-4.13c-12.688-6.984-25.493-13.856-38.252-19.843
		l-2.717,3.661h-0.001l2.717-3.661c-13.259-6.221-26.468-11.479-39.443-14.903c-3.718-0.98-7.416-1.809-11.091-2.468l-4.858,10.043
		l-0.008,0.017l-0.001-0.001l0.008-0.017c-0.005,0-0.01,0-0.015,0l4.859-10.044c-6.389-1.145-12.708-1.778-18.932-1.778
		c-10.33,0-20.093,0.514-29.318,1.498c0,0-0.001,0-0.002,0c-15.656,1.67-29.744,4.708-42.414,8.895c0,0,0,0-0.001,0
		c-0.005,0.002-0.011,0.004-0.016,0.006l-1.869,15.714h-0.001l1.869-15.714c-8.231,2.721-15.868,5.921-22.924,9.564
		c2.456,4.184,5.012,8.301,7.665,12.351c52.867,80.707,144.084,134.031,247.77,134.031c15.367,0,30.46-1.173,45.195-3.43
		c1.595-14.921,7.812-29.224,17.374-42.553c4.979-6.941,10.864-13.62,17.472-19.982
		C484.962,519.706,467.974,513.193,449.705,505.785z"/>
	
		<linearGradient id="SVGID_12_" gradientUnits="userSpaceOnUse" x1="375.8464" y1="148.7551" x2="375.8464" y2="60.4651" gradientTransform="matrix(1 0 0 -1 24.9448 586.6401)">
		<stop  offset="0" style="stop-color:#93BC19"/>
		<stop  offset="1" style="stop-color:#638A35"/>
	</linearGradient>
	<path fill="url(#SVGID_12_)" d="M374.395,468.92c18.062,10.003,35.819,19.914,52.792,27.453
		C410.214,488.834,392.457,478.923,374.395,468.92L374.395,468.92z"/>
	
		<linearGradient id="SVGID_13_" gradientUnits="userSpaceOnUse" x1="375.8464" y1="160.844" x2="375.8464" y2="-8.6423" gradientTransform="matrix(1 0 0 -1 24.9448 586.6401)">
		<stop  offset="0" style="stop-color:#93BC19"/>
		<stop  offset="1" style="stop-color:#638A35"/>
	</linearGradient>
	<path fill="url(#SVGID_13_)" d="M374.395,468.92c18.062,10.003,35.819,19.914,52.792,27.453
		C410.214,488.834,392.457,478.923,374.395,468.92L374.395,468.92z"/>
	<path fill="#D8D8D8" d="M366.919,464.79c2.497,1.375,4.989,2.753,7.476,4.13l0,0C371.908,467.543,369.416,466.165,366.919,464.79z"
		/>
	
		<linearGradient id="SVGID_14_" gradientUnits="userSpaceOnUse" x1="345.7126" y1="148.7551" x2="345.7126" y2="60.4651" gradientTransform="matrix(1 0 0 -1 24.9448 586.6401)">
		<stop  offset="0" style="stop-color:#93BC19"/>
		<stop  offset="1" style="stop-color:#638A35"/>
	</linearGradient>
	<path fill="url(#SVGID_14_)" d="M366.919,464.79c2.497,1.375,4.989,2.753,7.476,4.13l0,0
		C371.908,467.543,369.416,466.165,366.919,464.79z"/>
	
		<linearGradient id="SVGID_15_" gradientUnits="userSpaceOnUse" x1="345.7126" y1="160.844" x2="345.7126" y2="-8.6423" gradientTransform="matrix(1 0 0 -1 24.9448 586.6401)">
		<stop  offset="0" style="stop-color:#93BC19"/>
		<stop  offset="1" style="stop-color:#638A35"/>
	</linearGradient>
	<path fill="url(#SVGID_15_)" d="M366.919,464.79c2.497,1.375,4.989,2.753,7.476,4.13l0,0
		C371.908,467.543,369.416,466.165,366.919,464.79z"/>
	<path fill="#D8D8D8" d="M583.726,474.742c0.516,0.287,1.049,0.559,1.56,0.851c27.704-8.791,56.09-13.794,80.004-13.808
		c1.333-1.97,2.643-3.956,3.928-5.96c-24.397,0.522-52.873,6.636-80.702,17.063h-0.001c0,0.001,0.001,0.001,0.001,0.001
		C586.915,473.489,585.321,474.115,583.726,474.742z"/>
	<linearGradient id="SVGID_16_" gradientUnits="userSpaceOnUse" x1="567.179" y1="455.825" x2="567.179" y2="588.7107">
		<stop  offset="0" style="stop-color:#93BC19"/>
		<stop  offset="1" style="stop-color:#638A35"/>
	</linearGradient>
	<path fill="url(#SVGID_16_)" d="M588.515,472.888L588.515,472.888C588.514,472.889,588.515,472.889,588.515,472.888
		c-1.6,0.601-3.194,1.227-4.789,1.854c-31.404,12.361-61.613,30.126-83.738,51.433c0,0,0,0-0.001,0c0,0,0,0-0.001,0.001h0.001
		c-6.608,6.363-12.493,13.041-17.473,19.982c-9.561,13.329-15.778,27.632-17.373,42.553c83.177-12.744,154.95-60.11,200.148-126.926
		c1.333-1.97,2.643-3.956,3.928-5.96C644.82,456.347,616.344,462.461,588.515,472.888z"/>
	
		<linearGradient id="SVGID_17_" gradientUnits="userSpaceOnUse" x1="516.9114" y1="148.7551" x2="516.9114" y2="60.4651" gradientTransform="matrix(1 0 0 -1 24.9448 586.6401)">
		<stop  offset="0" style="stop-color:#93BC19"/>
		<stop  offset="1" style="stop-color:#638A35"/>
	</linearGradient>
	<path fill="url(#SVGID_17_)" d="M499.988,526.174C499.988,526.174,499.988,526.174,499.988,526.174
		C499.988,526.175,499.988,526.175,499.988,526.174c22.125-21.306,52.334-39.07,83.738-51.432h-0.001
		C552.322,487.102,522.113,504.867,499.988,526.174z"/>
	
		<linearGradient id="SVGID_18_" gradientUnits="userSpaceOnUse" x1="516.9114" y1="130.8655" x2="516.9114" y2="-8.6404" gradientTransform="matrix(1 0 0 -1 24.9448 586.6401)">
		<stop  offset="0" style="stop-color:#93BC19"/>
		<stop  offset="1" style="stop-color:#638A35"/>
	</linearGradient>
	<path fill="url(#SVGID_18_)" d="M499.988,526.174C499.988,526.174,499.988,526.174,499.988,526.174
		C499.988,526.175,499.988,526.175,499.988,526.174c22.125-21.306,52.334-39.07,83.738-51.432h-0.001
		C552.322,487.102,522.113,504.867,499.988,526.174z"/>
	<path fill="#D8D8D8" d="M583.726,474.742c1.595-0.627,3.189-1.253,4.789-1.853c0,0-0.001,0-0.001-0.001
		C586.914,473.488,585.32,474.114,583.726,474.742L583.726,474.742z"/>
	
		<linearGradient id="SVGID_19_" gradientUnits="userSpaceOnUse" x1="561.175" y1="148.7551" x2="561.175" y2="60.4651" gradientTransform="matrix(1 0 0 -1 24.9448 586.6401)">
		<stop  offset="0" style="stop-color:#93BC19"/>
		<stop  offset="1" style="stop-color:#638A35"/>
	</linearGradient>
	<path fill="url(#SVGID_19_)" d="M583.726,474.742c1.595-0.627,3.189-1.253,4.789-1.853c0,0-0.001,0-0.001-0.001
		C586.914,473.488,585.32,474.114,583.726,474.742L583.726,474.742z"/>
	
		<linearGradient id="SVGID_20_" gradientUnits="userSpaceOnUse" x1="561.175" y1="130.8655" x2="561.175" y2="-8.6404" gradientTransform="matrix(1 0 0 -1 24.9448 586.6401)">
		<stop  offset="0" style="stop-color:#93BC19"/>
		<stop  offset="1" style="stop-color:#638A35"/>
	</linearGradient>
	<path fill="url(#SVGID_20_)" d="M583.726,474.742c1.595-0.627,3.189-1.253,4.789-1.853c0,0-0.001,0-0.001-0.001
		C586.914,473.488,585.32,474.114,583.726,474.742L583.726,474.742z"/>
	
		<linearGradient id="SVGID_21_" gradientUnits="userSpaceOnUse" x1="466.3049" y1="160.844" x2="466.3049" y2="-8.6423" gradientTransform="matrix(1 0 0 -1 24.9448 586.6401)">
		<stop  offset="0" style="stop-color:#93BC19"/>
		<stop  offset="1" style="stop-color:#638A35"/>
	</linearGradient>
	<path fill="url(#SVGID_21_)" d="M482.514,546.158c4.979-6.941,10.864-13.619,17.473-19.982h-0.001
		C493.378,532.538,487.493,539.217,482.514,546.158z"/>
	
		<linearGradient id="SVGID_22_" gradientUnits="userSpaceOnUse" x1="466.3049" y1="130.8655" x2="466.3049" y2="-8.6404" gradientTransform="matrix(1 0 0 -1 24.9448 586.6401)">
		<stop  offset="0" style="stop-color:#93BC19"/>
		<stop  offset="1" style="stop-color:#638A35"/>
	</linearGradient>
	<path fill="url(#SVGID_22_)" d="M482.514,546.158c4.979-6.941,10.864-13.619,17.473-19.982h-0.001
		C493.378,532.538,487.493,539.217,482.514,546.158z"/>
</g>
<g>
	<g>
		<g enable-background="new    ">
			<g enable-background="new    ">
				<g>
					<defs>
						<path id="SVGID_23_" d="M578.429,259.663c8.991,2.795,17.983,5.591,26.975,8.386c-3.812-1.187-7.928-1.866-12.327-1.922
							l-26.976-8.386C570.5,257.797,574.615,258.476,578.429,259.663z"/>
					</defs>
					<clipPath id="SVGID_24_">
						<use xlink:href="#SVGID_23_"  overflow="visible"/>
					</clipPath>
					<g clip-path="url(#SVGID_24_)" enable-background="new    ">
						<path fill="#385C00" d="M593.076,266.126l-26.976-8.386c0.116,0.001,0.229,0.003,0.346,0.006l26.976,8.386
							C593.308,266.129,593.191,266.126,593.076,266.126"/>
						<path fill="#3A5F00" d="M593.422,266.132l-26.976-8.386c4.271,0.085,8.268,0.761,11.982,1.916l26.977,8.386
							C601.69,266.894,597.692,266.218,593.422,266.132"/>
					</g>
				</g>
			</g>
			<g enable-background="new    ">
				<g>
					<defs>
						<path id="SVGID_25_" d="M591.293,265.872c-8.993-2.796-17.984-5.591-26.976-8.386c0.522,0.162,1.11,0.246,1.783,0.253
							l26.976,8.386C592.404,266.118,591.816,266.034,591.293,265.872z"/>
					</defs>
					<clipPath id="SVGID_26_">
						<use xlink:href="#SVGID_25_"  overflow="visible"/>
					</clipPath>
					<g clip-path="url(#SVGID_26_)" enable-background="new    ">
						<path fill="#3A5F00" d="M591.293,265.872l-26.976-8.386c0.5,0.155,1.064,0.239,1.706,0.252l26.975,8.386
							C592.358,266.112,591.794,266.028,591.293,265.872"/>
						<path fill="#385C00" d="M592.997,266.124l-26.975-8.386c0.025,0.001,0.05,0.001,0.078,0.001l26.976,8.386
							C593.05,266.126,593.023,266.124,592.997,266.124"/>
					</g>
				</g>
			</g>
			<path fill="none" d="M554.973,280.489c8.993,2.795,17.983,5.591,26.977,8.386c4.002,1.243,7.76,3.466,10.851,6.595
				c8.834,8.939,10.774,19.631,5.44,29.984l-26.975-8.385c5.333-10.354,3.393-21.044-5.442-29.985
				C562.734,283.954,558.975,281.734,554.973,280.489z"/>
			<path fill="none" d="M565.677,339.838l-26.978-8.385c0.287,0.004,0.567,0.006,0.852,0.006c12.604,0,23.305-4.16,31.715-14.389
				l26.975,8.385c-8.409,10.23-19.109,14.389-31.714,14.389C566.241,339.844,565.962,339.842,565.677,339.838z"/>
			<g enable-background="new    ">
				<g>
					<defs>
						<path id="SVGID_27_" d="M557.175,293.341c-8.992-2.794-17.983-5.591-26.975-8.386c-0.376-0.116-0.765-0.339-1.17-0.699
							c-2.726-2.393,0.595-4.375,1.353-6.302c5.043-12.688,3.115-21.41-7.061-30.176c-6.002-5.163-12.339-8.76-18.884-10.794
							l26.974,8.385c6.547,2.035,12.883,5.633,18.886,10.796c10.176,8.767,12.104,17.488,7.061,30.176
							c-0.758,1.927-4.077,3.91-1.352,6.302C556.411,293.002,556.801,293.224,557.175,293.341z"/>
					</defs>
					<clipPath id="SVGID_28_">
						<use xlink:href="#SVGID_27_"  overflow="visible"/>
					</clipPath>
					<g clip-path="url(#SVGID_28_)" enable-background="new    ">
						<path fill="#325300" d="M557.175,293.341l-26.975-8.386c-0.376-0.116-0.765-0.339-1.17-0.699
							c-2.726-2.393,0.595-4.375,1.353-6.302c5.043-12.688,3.115-21.41-7.061-30.176c-6.002-5.163-12.339-8.76-18.884-10.794
							l26.974,8.385c6.547,2.035,12.883,5.633,18.886,10.796c10.176,8.767,12.104,17.488,7.061,30.176
							c-0.758,1.927-4.077,3.91-1.352,6.302C556.411,293.002,556.801,293.224,557.175,293.341"/>
					</g>
				</g>
			</g>
			<g enable-background="new    ">
				<g>
					<defs>
						<path id="SVGID_29_" d="M533.906,223.922l-26.976-8.386c0.514,0.159,1.089,0.266,1.75,0.331
							c5.188,0.511,10.062,1.473,14.622,2.891l26.976,8.385c-4.558-1.417-9.434-2.38-14.621-2.891
							C534.993,224.187,534.417,224.081,533.906,223.922z"/>
					</defs>
					<clipPath id="SVGID_30_">
						<use xlink:href="#SVGID_29_"  overflow="visible"/>
					</clipPath>
					<g clip-path="url(#SVGID_30_)" enable-background="new    ">
						<path fill="#3A5F00" d="M533.906,223.922l-26.976-8.386c0.514,0.159,1.089,0.266,1.75,0.331
							c5.188,0.511,10.062,1.473,14.622,2.891l26.976,8.385c-4.558-1.417-9.434-2.38-14.621-2.891
							C534.993,224.187,534.417,224.081,533.906,223.922"/>
					</g>
				</g>
			</g>
			<g enable-background="new    ">
				<g>
					<defs>
						<path id="SVGID_31_" d="M453.435,288.538l-26.975-8.385c-0.104-0.033-0.21-0.07-0.319-0.112
							c-2.521-0.992-1.676-3.049-0.994-4.755c11.611-29.037,27.721-53.22,67.36-59.244c1.784-0.262,4.209,0.438,5.08-1.458
							c1.105-2.377-1.363-3.806-2.608-5.309c-11.559-14.106-25.615-23.122-41.449-28.043c8.994,2.794,17.984,5.59,26.978,8.385
							c15.834,4.922,29.888,13.938,41.446,28.043c1.246,1.502,3.714,2.932,2.61,5.309c-0.871,1.896-3.298,1.197-5.081,1.458
							c-39.641,6.024-55.749,30.208-67.359,59.245c-0.684,1.706-1.526,3.763,0.993,4.754
							C453.227,288.469,453.332,288.506,453.435,288.538z"/>
					</defs>
					<clipPath id="SVGID_32_">
						<use xlink:href="#SVGID_31_"  overflow="visible"/>
					</clipPath>
					<path clip-path="url(#SVGID_32_)" fill="#325300" d="M521.954,217.659c-11.559-14.105-25.613-23.121-41.447-28.043
						l-26.977-8.385c15.834,4.921,29.891,13.937,41.449,28.043c1.245,1.503,3.714,2.932,2.607,5.309
						c-0.16,0.351-0.375,0.611-0.626,0.807c-0.132,0.101-0.274,0.186-0.425,0.255c-0.184,0.084-0.382,0.146-0.588,0.192
						c-1.062,0.237-2.365,0.047-3.439,0.204c-2.45,0.372-4.81,0.812-7.083,1.32c-6.208,1.386-11.78,3.265-16.808,5.574
						c-5.028,2.31-9.515,5.049-13.545,8.154c-14.351,11.055-22.948,26.748-29.926,44.195c-0.682,1.707-1.526,3.764,0.994,4.755
						c0.111,0.043,0.216,0.08,0.32,0.113l26.975,8.385c-0.104-0.033-0.21-0.069-0.319-0.112c-2.519-0.992-1.675-3.05-0.992-4.754
						c6.975-17.448,15.574-33.141,29.926-44.196c4.028-3.104,8.514-5.843,13.542-8.153c5.028-2.309,10.602-4.189,16.81-5.574
						c2.273-0.507,4.632-0.949,7.083-1.321c1.072-0.157,2.381,0.034,3.439-0.203c0.207-0.047,0.403-0.109,0.588-0.193
						c0.15-0.068,0.293-0.153,0.424-0.254c0.254-0.195,0.467-0.457,0.628-0.807C525.669,220.592,523.2,219.162,521.954,217.659z"/>
				</g>
			</g>
			<path fill="#395E00" d="M592.8,295.47c-3.091-3.129-6.849-5.352-10.851-6.595l-26.977-8.386
				c4.003,1.245,7.761,3.466,10.851,6.596c8.835,8.941,10.775,19.632,5.442,29.985c-2.086,2.537-4.312,4.701-6.675,6.52
				c-2.217,1.709-4.555,3.113-7.006,4.24c-2.42,1.111-4.953,1.949-7.594,2.541c-3.315,0.74-6.797,1.088-10.44,1.088
				c-0.284,0-0.563-0.002-0.852-0.006H335.115l10.732,8.385h219.831c0.286,0.004,0.565,0.006,0.851,0.006
				c3.642,0,7.125-0.346,10.439-1.086c2.642-0.592,5.174-1.432,7.595-2.543c2.451-1.125,4.788-2.529,7.006-4.238
				c2.361-1.818,4.588-3.984,6.674-6.521C603.574,315.101,601.634,304.41,592.8,295.47z"/>
			<g enable-background="new    ">
				<g>
					<defs>
						<path id="SVGID_33_" d="M322.199,365.08c-8.992-2.797-17.983-5.592-26.975-8.387c-10.328-3.209-19.737-8.748-27.855-17.568
							c-17.94-19.502-23.757-42.779-15.076-68.607c9.208-27.421,29.87-41.321,56.906-45.667c6.013-0.963,8.119-2.698,9.16-9.071
							c2.408-14.614,10.374-26.472,21.087-36.447c18.551-17.273,47.24-26.533,74.904-26.533c11.282,0,22.396,1.542,32.579,4.707
							c8.991,2.796,17.984,5.591,26.978,8.386c-10.186-3.166-21.298-4.707-32.58-4.707c-27.665,0-56.353,9.26-74.906,26.532
							c-10.71,9.976-18.677,21.834-21.086,36.447c-1.041,6.374-3.147,8.108-9.159,9.071c-27.036,4.347-47.698,18.245-56.906,45.667
							c-8.681,25.828-2.865,49.107,15.078,68.607C302.464,356.33,311.871,361.869,322.199,365.08z"/>
					</defs>
					<clipPath id="SVGID_34_">
						<use xlink:href="#SVGID_33_"  overflow="visible"/>
					</clipPath>
					<g clip-path="url(#SVGID_34_)" enable-background="new    ">
						<path fill="#325300" d="M322.201,365.08l-26.977-8.387c-10.327-3.209-19.737-8.748-27.855-17.568
							c-17.94-19.502-23.757-42.779-15.076-68.607c4.593-13.677,12.035-23.99,21.693-31.43l26.978,8.386
							c-9.661,7.44-17.101,17.754-21.695,31.43c-8.681,25.829-2.865,49.108,15.077,68.608
							C302.464,356.33,311.873,361.869,322.201,365.08"/>
						<path fill="#345600" d="M300.964,247.472l-26.977-8.386c3.89-2.997,8.14-5.526,12.708-7.625l26.975,8.386
							C309.102,241.946,304.852,244.477,300.964,247.472"/>
						<path fill="#365900" d="M313.669,239.849l-26.975-8.386c5.114-2.348,10.629-4.154,16.482-5.461l26.978,8.386
							C324.298,235.696,318.783,237.5,313.669,239.849"/>
						<path fill="#385C00" d="M330.154,234.388l-26.978-8.386c1.97-0.44,3.977-0.823,6.022-1.151
							c0.628-0.101,1.215-0.21,1.762-0.333l26.976,8.386c-0.547,0.122-1.135,0.23-1.762,0.332
							C334.129,233.566,332.122,233.948,330.154,234.388"/>
						<path fill="#365900" d="M337.936,232.905l-26.976-8.386c1.042-0.233,1.941-0.512,2.718-0.869l26.975,8.386
							C339.876,232.392,338.978,232.671,337.936,232.905"/>
						<path fill="#345600" d="M340.654,232.035l-26.975-8.386c0.538-0.247,1.019-0.53,1.449-0.862l26.975,8.386
							C341.673,231.505,341.193,231.788,340.654,232.035"/>
						<path fill="#325300" d="M342.101,231.173l-26.976-8.386c1.738-1.339,2.652-3.452,3.232-7.008
							c2.408-14.614,10.374-26.472,21.087-36.447c1.79-1.666,3.67-3.256,5.637-4.771l26.976,8.386
							c-1.967,1.516-3.849,3.106-5.639,4.771c-10.71,9.976-18.676,21.834-21.086,36.447
							C344.753,227.721,343.84,229.833,342.101,231.173"/>
						<path fill="#345600" d="M372.059,182.948l-26.976-8.386c5.502-4.239,11.665-7.887,18.27-10.918l26.975,8.385
							C383.725,175.061,377.562,178.708,372.059,182.948"/>
						<path fill="#365900" d="M390.327,172.029l-26.975-8.385c7.322-3.363,15.186-5.967,23.295-7.779l26.975,8.386
							C405.517,166.063,397.651,168.667,390.327,172.029"/>
						<path fill="#385C00" d="M413.623,164.251l-26.975-8.386c9.069-2.027,18.443-3.065,27.702-3.065
							c0.821,0,1.641,0.01,2.458,0.024l26.979,8.386c-0.818-0.018-1.639-0.025-2.459-0.025
							C432.066,161.185,422.694,162.223,413.623,164.251"/>
						<path fill="#3A5F00" d="M443.785,161.211l-26.978-8.386c10.437,0.208,20.678,1.747,30.12,4.683l26.978,8.386
							C464.461,162.957,454.22,161.419,443.785,161.211"/>
					</g>
				</g>
			</g>
			<g>
				<path fill="#609F00" stroke="#609F00" stroke-width="1.6245" stroke-miterlimit="10" d="M593.076,266.126
					c31.335,0.408,48.111,32.377,45.781,53.716c-2.996,27.436-26.753,48.859-55.614,48.961H350.822
					c-0.389,0.002-0.778,0.006-1.167,0.006c-21.25,0-40.441-5.145-55.309-21.301c-17.942-19.498-23.758-42.777-15.077-68.606
					c9.208-27.421,29.869-41.32,56.905-45.666c6.012-0.964,8.119-2.698,9.159-9.071c2.41-14.615,10.376-26.473,21.086-36.448
					c18.553-17.273,47.241-26.532,74.906-26.532c18.988,0,37.492,4.363,51.901,13.492c16.942,10.72,28.994,26.049,36.708,44.746
					c1.369,3.311,2.619,4.521,5.721,4.828c24.577,2.422,42.144,14.979,52.24,37.979
					C589.039,264.828,590.371,266.096,593.076,266.126z M598.24,325.455c5.334-10.354,3.394-21.045-5.44-29.984
					c-5.019-5.084-11.801-7.765-18.522-7.765c-4.192,0-8.361,1.043-12.063,3.2c-1.441,0.833-2.798,2.537-4.378,2.537
					c-0.576,0-1.182-0.225-1.829-0.801c-2.726-2.392,0.594-4.375,1.352-6.302c5.043-12.688,3.115-21.41-7.061-30.176
					c-9.915-8.529-20.741-12.786-31.922-12.786c-11.834,0-24.066,4.77-36.027,14.288c-9.752,7.758-18.002,16.873-24.339,27.769
					c-0.855,1.461-1.743,3.268-3.564,3.268c-0.395,0-0.835-0.085-1.328-0.278c-2.52-0.992-1.675-3.049-0.993-4.754
					c11.61-29.037,27.718-53.221,67.359-59.245c1.783-0.261,4.21,0.438,5.08-1.457c1.105-2.377-1.363-3.806-2.609-5.31
					c-17.974-21.935-41.983-31.561-69.334-32.626c-1.206-0.046-2.412-0.071-3.62-0.071c-35.182,0-70.564,20.022-71.885,65.441
					c-0.112,3.733-1.413,4.551-3.234,4.551c-1.081,0-2.346-0.288-3.654-0.422c-2.565-0.268-5.09-0.412-7.569-0.412
					c-13.234,0-25.136,4.121-34.498,15.753c-0.649,1.473-1.258,2.961-2.174,4.303c-13.268,19.267-7.8,44.865,10.068,56.253
					c8.097,5.162,15.868,8.312,26.037,9.408h203.586c0.285,0.004,0.564,0.006,0.85,0.006
					C579.131,339.844,589.831,335.683,598.24,325.455"/>
			</g>
		</g>
	</g>
	<g>
		<g enable-background="new    ">
			<g enable-background="new    ">
				<g>
					<defs>
						<path id="SVGID_35_" d="M403.246,236.085c3.979-2.248,7.478-5.886,10.504-10.913l26.979,8.385
							c-3.026,5.027-6.525,8.667-10.506,10.915C421.232,241.677,412.24,238.882,403.246,236.085z"/>
					</defs>
					<clipPath id="SVGID_36_">
						<use xlink:href="#SVGID_35_"  overflow="visible"/>
					</clipPath>
					<g clip-path="url(#SVGID_36_)" enable-background="new    ">
						<path fill="#54324D" d="M428.648,245.276l-26.977-8.385c1.492-0.686,2.919-1.555,4.286-2.607l26.976,8.386
							C431.569,243.721,430.138,244.59,428.648,245.276"/>
						<path fill="#51304A" d="M432.933,242.67l-26.975-8.386c2.878-2.221,5.475-5.259,7.793-9.11l26.979,8.384
							C438.407,237.41,435.811,240.448,432.933,242.67"/>
					</g>
				</g>
			</g>
			<g enable-background="new    ">
				<g>
					<defs>
						<path id="SVGID_37_" d="M398.034,238.167c1.82-0.454,3.559-1.147,5.212-2.082c8.993,2.796,17.985,5.592,26.977,8.386
							c-1.655,0.934-3.393,1.627-5.213,2.081C416.018,243.756,407.026,240.961,398.034,238.167z"/>
					</defs>
					<clipPath id="SVGID_38_">
						<use xlink:href="#SVGID_37_"  overflow="visible"/>
					</clipPath>
					<g clip-path="url(#SVGID_38_)" enable-background="new    ">
						<path fill="#573450" d="M424.517,246.667l-26.975-8.385c1.428-0.318,2.804-0.783,4.128-1.392l26.977,8.385
							C427.323,245.885,425.945,246.349,424.517,246.667"/>
						<path fill="#54324D" d="M428.648,245.276l-26.977-8.385c1.492-0.686,2.919-1.555,4.286-2.607l26.976,8.386
							C431.569,243.721,430.138,244.59,428.648,245.276"/>
					</g>
				</g>
			</g>
			<g enable-background="new    ">
				<g>
					<defs>
						<path id="SVGID_39_" d="M392.654,238.808c1.867,0,3.66-0.214,5.381-0.642c8.991,2.794,17.983,5.59,26.976,8.386
							c-1.72,0.426-3.513,0.641-5.381,0.641C410.638,244.398,401.645,241.603,392.654,238.808z"/>
					</defs>
					<clipPath id="SVGID_40_">
						<use xlink:href="#SVGID_39_"  overflow="visible"/>
					</clipPath>
					<g clip-path="url(#SVGID_40_)" enable-background="new    ">
						<path fill="#5A3553" d="M419.234,247.191l-26.976-8.386c0.131,0.001,0.264,0.003,0.396,0.003c1.69,0,3.321-0.175,4.889-0.526
							l26.975,8.385c-1.566,0.353-3.196,0.526-4.888,0.526C419.497,247.194,419.365,247.194,419.234,247.191"/>
						<path fill="#573450" d="M424.517,246.667l-26.975-8.385c1.428-0.318,2.804-0.783,4.128-1.392l26.977,8.385
							C427.323,245.885,425.945,246.349,424.517,246.667"/>
					</g>
				</g>
			</g>
			<g enable-background="new    ">
				<g>
					<defs>
						<path id="SVGID_41_" d="M387.875,238.269c1.675,0.365,3.269,0.54,4.778,0.54c8.992,2.794,17.984,5.59,26.977,8.385
							c-1.51,0-3.104-0.173-4.779-0.54C405.86,243.859,396.867,241.063,387.875,238.269z"/>
					</defs>
					<clipPath id="SVGID_42_">
						<use xlink:href="#SVGID_41_"  overflow="visible"/>
					</clipPath>
					<g clip-path="url(#SVGID_42_)" enable-background="new    ">
						<path fill="#5D3756" d="M412.793,246.114l-26.978-8.386c0.667,0.207,1.352,0.387,2.06,0.542
							c1.528,0.333,2.99,0.508,4.383,0.537l26.976,8.386c-1.391-0.028-2.854-0.203-4.384-0.537
							C414.142,246.5,413.457,246.321,412.793,246.114"/>
						<path fill="#5A3553" d="M419.234,247.191l-26.976-8.386c0.131,0.001,0.264,0.003,0.396,0.003c1.69,0,3.321-0.175,4.889-0.526
							l26.975,8.385c-1.566,0.353-3.196,0.526-4.888,0.526C419.497,247.194,419.365,247.194,419.234,247.191"/>
					</g>
				</g>
			</g>
			<g enable-background="new    ">
				<g>
					<defs>
						<path id="SVGID_43_" d="M417.102,181.505c-2.764-5.085-6.732-8.369-11.985-10.002l26.978,8.386
							c5.253,1.633,9.22,4.917,11.984,10.002c2.758,4.916,4.089,10.836,3.978,17.925c-0.147,9.363-2.588,17.91-7.326,25.742
							l-26.979-8.385c4.739-7.832,7.182-16.379,7.33-25.743C421.192,192.342,419.862,186.42,417.102,181.505z"/>
					</defs>
					<clipPath id="SVGID_44_">
						<use xlink:href="#SVGID_43_"  overflow="visible"/>
					</clipPath>
					<g clip-path="url(#SVGID_44_)" enable-background="new    ">
						<path fill="#51304A" d="M440.729,233.557l-26.979-8.385c4.739-7.832,7.182-16.379,7.331-25.743
							c0.11-7.088-1.221-13.01-3.98-17.925c-2.764-5.086-6.732-8.369-11.985-10.002l26.976,8.386
							c5.254,1.633,9.222,4.916,11.986,10.002c2.758,4.916,4.09,10.836,3.978,17.925
							C447.908,217.178,445.467,225.725,440.729,233.557"/>
					</g>
				</g>
			</g>
			<g enable-background="new    ">
				<g>
					<defs>
						<path id="SVGID_45_" d="M417.863,231.347c-8.992-2.795-17.984-5.59-26.976-8.385c0.137,0.043,0.277,0.079,0.418,0.109
							c0.35,0.071,0.701,0.106,1.059,0.106c1.92,0,3.978-1.018,6.183-3.008c3.338-3.004,5.629-7.467,6.965-13.462l26.976,8.386
							c-1.336,5.995-3.627,10.458-6.965,13.461c-2.205,1.991-4.263,3.009-6.181,3.009c-0.358,0-0.711-0.037-1.061-0.107
							C418.141,231.427,418.002,231.39,417.863,231.347z"/>
					</defs>
					<clipPath id="SVGID_46_">
						<use xlink:href="#SVGID_45_"  overflow="visible"/>
					</clipPath>
					<g clip-path="url(#SVGID_46_)" enable-background="new    ">
						<path fill="#999999" d="M417.863,231.347l-26.976-8.385c0.137,0.043,0.277,0.079,0.418,0.109
							c0.314,0.064,0.633,0.099,0.952,0.104l26.976,8.386c-0.322-0.007-0.639-0.042-0.953-0.105
							C418.141,231.427,418.002,231.39,417.863,231.347"/>
						<path fill="#949494" d="M419.233,231.562l-26.976-8.386c0.034,0.001,0.071,0.002,0.105,0.002c0.421,0,0.846-0.05,1.28-0.147
							l26.976,8.386c-0.433,0.097-0.858,0.146-1.278,0.146C419.303,231.565,419.267,231.563,419.233,231.562"/>
						<path fill="#8F8F8F" d="M420.618,231.418l-26.976-8.386c0.492-0.109,0.993-0.282,1.505-0.517l26.976,8.386
							C421.611,231.135,421.111,231.308,420.618,231.418"/>
						<path fill="#8A8A8A" d="M422.122,230.901l-26.975-8.386c0.744-0.342,1.506-0.816,2.29-1.419l26.975,8.385
							C423.632,230.085,422.868,230.558,422.122,230.901"/>
						<path fill="#858585" d="M424.413,229.481l-26.975-8.385c0.364-0.281,0.732-0.59,1.106-0.928
							c3.338-3.003,5.629-7.466,6.965-13.461l26.976,8.386c-1.336,5.995-3.627,10.458-6.965,13.461
							C425.148,228.891,424.779,229.2,424.413,229.481"/>
					</g>
				</g>
			</g>
			<g enable-background="new    ">
				<g>
					<defs>
						<path id="SVGID_47_" d="M385.816,237.727c0.667,0.207,1.353,0.387,2.06,0.542c8.992,2.794,17.984,5.59,26.976,8.386
							c-0.708-0.153-1.394-0.334-2.057-0.541C404.7,243.597,393.91,240.243,385.816,237.727z"/>
					</defs>
					<clipPath id="SVGID_48_">
						<use xlink:href="#SVGID_47_"  overflow="visible"/>
					</clipPath>
					<g clip-path="url(#SVGID_48_)" enable-background="new    ">
						<path fill="#5D3756" d="M412.793,246.114l-26.978-8.386c0.667,0.207,1.352,0.387,2.06,0.542
							c1.528,0.333,2.99,0.508,4.383,0.537l26.976,8.386c-1.391-0.028-2.854-0.203-4.384-0.537
							C414.142,246.5,413.457,246.321,412.793,246.114"/>
					</g>
				</g>
			</g>
			<g enable-background="new    ">
				<g>
					<defs>
						<path id="SVGID_49_" d="M400.011,185.881l26.975,8.386c1.946,0.604,3.562,2.492,4.752,5.819
							c1.023,2.815,1.521,5.63,1.479,8.27c-0.039,2.363-0.344,4.637-0.732,6.738l-26.976-8.386c0.389-2.1,0.694-4.375,0.731-6.738
							c0.043-2.64-0.456-5.455-1.481-8.269C403.572,188.372,401.954,186.484,400.011,185.881z"/>
					</defs>
					<clipPath id="SVGID_50_">
						<use xlink:href="#SVGID_49_"  overflow="visible"/>
					</clipPath>
					<g clip-path="url(#SVGID_50_)" enable-background="new    ">
						<path fill="#858585" d="M432.486,215.093l-26.976-8.386c0.389-2.1,0.694-4.375,0.731-6.738
							c0.043-2.64-0.457-5.455-1.481-8.269c-1.189-3.328-2.807-5.216-4.75-5.819l26.976,8.386c1.945,0.604,3.56,2.492,4.751,5.819
							c1.023,2.815,1.521,5.63,1.479,8.27C433.179,210.718,432.874,212.991,432.486,215.093"/>
					</g>
				</g>
			</g>
			<g enable-background="new    ">
				<g>
					<defs>
						<path id="SVGID_51_" d="M400.011,185.881c8.992,2.794,17.983,5.59,26.975,8.386c-0.126-0.041-0.253-0.073-0.384-0.102
							l-26.976-8.386C399.756,185.806,399.884,185.841,400.011,185.881z"/>
					</defs>
					<clipPath id="SVGID_52_">
						<use xlink:href="#SVGID_51_"  overflow="visible"/>
					</clipPath>
					<g clip-path="url(#SVGID_52_)" enable-background="new    ">
						<path fill="#5D3756" d="M426.603,194.164l-26.977-8.386c0.13,0.029,0.258,0.063,0.386,0.102l26.975,8.386
							C426.86,194.226,426.733,194.193,426.603,194.164"/>
					</g>
				</g>
			</g>
			<g enable-background="new    ">
				<g>
					<defs>
						<path id="SVGID_53_" d="M417.268,199.807l-26.976-8.385c2.622-3.881,5.343-5.765,8.115-5.765c0.405,0,0.812,0.041,1.219,0.121
							l26.976,8.385c-0.406-0.08-0.812-0.121-1.218-0.121C422.612,194.043,419.889,195.927,417.268,199.807z"/>
					</defs>
					<clipPath id="SVGID_54_">
						<use xlink:href="#SVGID_53_"  overflow="visible"/>
					</clipPath>
					<g clip-path="url(#SVGID_54_)" enable-background="new    ">
						<path fill="#51304A" d="M417.268,199.807l-26.976-8.385c1.195-1.771,2.412-3.124,3.644-4.074l26.977,8.386
							C419.681,196.684,418.464,198.038,417.268,199.807"/>
						<path fill="#54324D" d="M420.913,195.734l-26.978-8.386c0.576-0.445,1.16-0.802,1.743-1.07l26.978,8.385
							C422.071,194.932,421.49,195.289,420.913,195.734"/>
						<path fill="#573450" d="M422.656,194.664l-26.978-8.385c0.459-0.21,0.92-0.368,1.38-0.471l26.976,8.385
							C423.573,194.296,423.113,194.453,422.656,194.664"/>
						<path fill="#5A3553" d="M424.034,194.193l-26.976-8.385c0.45-0.101,0.898-0.15,1.35-0.15c0.042,0,0.082,0,0.12,0.001
							l26.979,8.385c-0.043-0.001-0.082-0.001-0.123-0.001C424.934,194.043,424.483,194.093,424.034,194.193"/>
						<path fill="#5D3756" d="M425.507,194.045l-26.979-8.385c0.366,0.007,0.731,0.046,1.098,0.12l26.977,8.386
							C426.237,194.092,425.87,194.052,425.507,194.045"/>
					</g>
				</g>
			</g>
			<g enable-background="new    ">
				<g>
					<defs>
						<path id="SVGID_55_" d="M417.863,231.347l-26.976-8.385c-1.939-0.603-3.532-2.488-4.732-5.798
							c-1.024-2.815-1.507-5.645-1.464-8.284c0.034-2.261,0.242-4.535,0.716-6.638c0.872-3.733,2.439-7.364,4.886-10.821
							l26.976,8.385c-2.446,3.457-4.015,7.088-4.886,10.822c-0.474,2.101-0.682,4.375-0.719,6.636
							c-0.04,2.64,0.442,5.469,1.468,8.284C414.33,228.86,415.923,230.744,417.863,231.347z"/>
					</defs>
					<clipPath id="SVGID_56_">
						<use xlink:href="#SVGID_55_"  overflow="visible"/>
					</clipPath>
					<g clip-path="url(#SVGID_56_)" enable-background="new    ">
						<path fill="#51304A" d="M417.863,231.347l-26.976-8.385c-1.939-0.603-3.532-2.488-4.732-5.798
							c-1.024-2.815-1.507-5.645-1.464-8.284c0.034-2.261,0.242-4.535,0.716-6.638c0.872-3.733,2.439-7.364,4.886-10.821
							l26.976,8.385c-2.446,3.457-4.015,7.088-4.886,10.822c-0.474,2.101-0.682,4.375-0.719,6.636
							c-0.04,2.64,0.442,5.469,1.468,8.284C414.33,228.86,415.923,230.744,417.863,231.347"/>
					</g>
				</g>
			</g>
			<g>
				<path fill="#FFFFFF" d="M444.077,189.89c2.758,4.916,4.09,10.836,3.978,17.925c-0.147,9.363-2.588,17.91-7.326,25.742
					c-5.473,9.087-12.48,13.637-21.1,13.637c-1.51,0-3.104-0.173-4.779-0.54c-6.288-1.371-10.949-4.828-14.051-10.559
					c-2.771-5.003-4.1-10.998-3.991-17.998c0.147-9.378,2.604-17.925,7.341-25.654c5.558-9.103,12.566-13.637,21.085-13.637
					c1.509,0,3.117,0.175,4.792,0.54C436.317,180.716,440.963,184.158,444.077,189.89z M432.486,215.093
					c0.389-2.101,0.693-4.375,0.732-6.738c0.042-2.639-0.457-5.455-1.479-8.27c-1.27-3.544-3.021-5.456-5.136-5.92
					c-0.406-0.081-0.812-0.121-1.219-0.121c-2.772,0-5.495,1.883-8.115,5.764c-2.446,3.457-4.015,7.088-4.886,10.822
					c-0.474,2.101-0.682,4.375-0.719,6.636c-0.04,2.64,0.442,5.469,1.468,8.285c1.285,3.543,3.02,5.455,5.148,5.906
					c0.349,0.071,0.702,0.108,1.061,0.108c1.918,0,3.976-1.019,6.181-3.009C428.859,225.55,431.15,221.087,432.486,215.093"/>
			</g>
			<g>
				<path fill="#8B5280" d="M426.603,194.164c2.115,0.466,3.866,2.377,5.136,5.921c1.022,2.815,1.521,5.63,1.479,8.27
					c-0.039,2.363-0.344,4.637-0.732,6.738c-1.336,5.995-3.627,10.458-6.965,13.461c-2.205,1.991-4.263,3.009-6.181,3.009
					c-0.357,0-0.711-0.037-1.061-0.107c-2.129-0.452-3.863-2.364-5.148-5.906c-1.025-2.815-1.507-5.645-1.467-8.284
					c0.037-2.261,0.244-4.535,0.718-6.636c0.872-3.734,2.438-7.365,4.886-10.822c2.621-3.881,5.343-5.764,8.116-5.764
					C425.791,194.043,426.197,194.084,426.603,194.164z"/>
			</g>
			<g enable-background="new    ">
				<g>
					<defs>
						<path id="SVGID_57_" d="M412.793,246.114l-26.978-8.386c-5.256-1.635-9.239-4.93-11.993-10.017
							c-2.77-5.004-4.099-10.999-3.991-17.999c0.149-9.378,2.604-17.925,7.34-25.654c5.559-9.102,12.566-13.638,21.088-13.638
							c1.509,0,3.115,0.174,4.79,0.54c0.71,0.155,1.397,0.336,2.065,0.544c8.992,2.795,17.983,5.591,26.975,8.386
							c-0.667-0.208-1.356-0.388-2.064-0.543c-1.675-0.365-3.283-0.54-4.791-0.54c-8.52,0-15.527,4.535-21.086,13.637
							c-4.736,7.729-7.194,16.276-7.341,25.654c-0.108,7,1.221,12.995,3.991,17.997
							C403.551,241.182,407.534,244.478,412.793,246.114z"/>
					</defs>
					<clipPath id="SVGID_58_">
						<use xlink:href="#SVGID_57_"  overflow="visible"/>
					</clipPath>
					<g clip-path="url(#SVGID_58_)" enable-background="new    ">
						<path fill="#858585" d="M412.793,246.114l-26.978-8.386c-5.256-1.635-9.239-4.93-11.993-10.017
							c-2.77-5.004-4.099-10.999-3.991-17.999c0.149-9.378,2.604-17.925,7.34-25.654c2.353-3.852,4.965-6.886,7.841-9.105
							l26.976,8.386c-2.876,2.219-5.487,5.252-7.84,9.105c-4.736,7.729-7.194,16.276-7.341,25.654
							c-0.108,7,1.221,12.995,3.991,17.997C403.551,241.182,407.534,244.478,412.793,246.114"/>
						<path fill="#8A8A8A" d="M411.99,183.339l-26.976-8.386c1.376-1.062,2.813-1.937,4.312-2.626l26.976,8.386
							C414.802,181.402,413.365,182.277,411.99,183.339"/>
						<path fill="#8F8F8F" d="M416.301,180.714l-26.976-8.386c1.325-0.607,2.694-1.07,4.113-1.388l26.977,8.386
							C418.995,179.642,417.625,180.106,416.301,180.714"/>
						<path fill="#949494" d="M420.416,179.326l-26.977-8.386c1.549-0.347,3.155-0.52,4.82-0.52c0.13,0,0.262,0.001,0.394,0.004
							l26.978,8.386c-0.133-0.001-0.265-0.003-0.395-0.003C423.571,178.806,421.964,178.979,420.416,179.326"/>
						<path fill="#999999" d="M425.631,178.81l-26.978-8.386c1.394,0.027,2.868,0.202,4.397,0.535
							c0.71,0.155,1.397,0.336,2.064,0.544l26.976,8.386c-0.667-0.208-1.356-0.388-2.064-0.543
							C428.496,179.012,427.024,178.838,425.631,178.81"/>
					</g>
				</g>
			</g>
			<g enable-background="new    ">
				<g>
					<defs>
						<path id="SVGID_59_" d="M347.546,236.085c3.981-2.248,7.478-5.886,10.506-10.913l26.976,8.385
							c-3.027,5.027-6.524,8.667-10.506,10.915c-4.496-1.398-8.993-2.794-13.488-4.193c-2.332-0.725-4.664-1.45-6.996-2.175
							C351.873,237.431,349.709,236.758,347.546,236.085z"/>
					</defs>
					<clipPath id="SVGID_60_">
						<use xlink:href="#SVGID_59_"  overflow="visible"/>
					</clipPath>
					<g clip-path="url(#SVGID_60_)" enable-background="new    ">
						<path fill="#54324D" d="M372.948,245.276l-26.975-8.385c1.491-0.686,2.918-1.555,4.283-2.607l26.975,8.386
							C375.866,243.721,374.439,244.59,372.948,245.276"/>
						<path fill="#51304A" d="M377.229,242.67l-26.975-8.386c2.879-2.221,5.476-5.259,7.796-9.11l26.976,8.384
							C382.706,237.41,380.11,240.448,377.229,242.67"/>
					</g>
				</g>
			</g>
			<g enable-background="new    ">
				<g>
					<defs>
						<path id="SVGID_61_" d="M342.332,238.167c1.822-0.454,3.559-1.147,5.213-2.082c8.991,2.796,17.982,5.592,26.976,8.386
							c-1.653,0.934-3.39,1.627-5.212,2.081C360.316,243.756,351.325,240.961,342.332,238.167z"/>
					</defs>
					<clipPath id="SVGID_62_">
						<use xlink:href="#SVGID_61_"  overflow="visible"/>
					</clipPath>
					<g clip-path="url(#SVGID_62_)" enable-background="new    ">
						<path fill="#573450" d="M368.819,246.667l-26.977-8.385c1.426-0.318,2.803-0.783,4.129-1.392l26.975,8.385
							C371.62,245.885,370.245,246.349,368.819,246.667"/>
						<path fill="#54324D" d="M372.948,245.276l-26.975-8.385c1.491-0.686,2.918-1.555,4.283-2.607l26.975,8.386
							C375.866,243.721,374.439,244.59,372.948,245.276"/>
					</g>
				</g>
			</g>
			<g enable-background="new    ">
				<g>
					<defs>
						<path id="SVGID_63_" d="M336.951,238.808c1.868,0,3.663-0.214,5.381-0.642c8.993,2.794,17.983,5.59,26.977,8.386
							c-1.718,0.426-3.512,0.641-5.381,0.641C354.935,244.398,345.943,241.603,336.951,238.808z"/>
					</defs>
					<clipPath id="SVGID_64_">
						<use xlink:href="#SVGID_63_"  overflow="visible"/>
					</clipPath>
					<g clip-path="url(#SVGID_64_)" enable-background="new    ">
						<path fill="#5A3553" d="M363.532,247.191l-26.975-8.386c0.131,0.001,0.263,0.003,0.394,0.003c1.692,0,3.322-0.175,4.891-0.526
							l26.977,8.385c-1.569,0.353-3.197,0.526-4.891,0.526C363.797,247.194,363.667,247.194,363.532,247.191"/>
						<path fill="#573450" d="M368.819,246.667l-26.977-8.385c1.426-0.318,2.803-0.783,4.129-1.392l26.975,8.385
							C371.62,245.885,370.245,246.349,368.819,246.667"/>
					</g>
				</g>
			</g>
			<g enable-background="new    ">
				<g>
					<defs>
						<path id="SVGID_65_" d="M332.16,238.269c1.688,0.365,3.28,0.54,4.791,0.54c8.991,2.794,17.984,5.59,26.977,8.385
							c-1.51,0-3.103-0.173-4.792-0.54C350.144,243.859,341.151,241.063,332.16,238.269z"/>
					</defs>
					<clipPath id="SVGID_66_">
						<use xlink:href="#SVGID_65_"  overflow="visible"/>
					</clipPath>
					<g clip-path="url(#SVGID_66_)" enable-background="new    ">
						<path fill="#5D3756" d="M357.094,246.116l-26.976-8.385c0.659,0.205,1.341,0.383,2.042,0.537
							c1.542,0.333,3.004,0.508,4.397,0.537l26.975,8.386c-1.392-0.028-2.854-0.203-4.397-0.537
							C358.434,246.502,357.755,246.321,357.094,246.116"/>
						<path fill="#5A3553" d="M363.532,247.191l-26.975-8.386c0.131,0.001,0.263,0.003,0.394,0.003c1.692,0,3.322-0.175,4.891-0.526
							l26.977,8.385c-1.569,0.353-3.197,0.526-4.891,0.526C363.797,247.194,363.667,247.194,363.532,247.191"/>
					</g>
				</g>
			</g>
			<g enable-background="new    ">
				<g>
					<defs>
						<path id="SVGID_67_" d="M361.401,181.505c-2.773-5.104-6.827-8.392-12.062-10.018l26.976,8.386
							c5.234,1.626,9.289,4.915,12.062,10.018c2.759,4.916,4.091,10.836,3.979,17.925c-0.147,9.363-2.588,17.91-7.328,25.742
							l-26.976-8.385c4.739-7.832,7.179-16.379,7.33-25.743C365.491,192.342,364.159,186.42,361.401,181.505z"/>
					</defs>
					<clipPath id="SVGID_68_">
						<use xlink:href="#SVGID_67_"  overflow="visible"/>
					</clipPath>
					<g clip-path="url(#SVGID_68_)" enable-background="new    ">
						<path fill="#51304A" d="M385.027,233.557l-26.976-8.385c4.739-7.832,7.179-16.379,7.33-25.743
							c0.111-7.088-1.222-13.01-3.98-17.925c-2.773-5.104-6.827-8.392-12.063-10.018l26.978,8.386
							c5.234,1.626,9.289,4.915,12.062,10.018c2.758,4.916,4.09,10.836,3.979,17.925
							C392.207,217.178,389.767,225.725,385.027,233.557"/>
					</g>
				</g>
			</g>
			<g enable-background="new    ">
				<g>
					<defs>
						<path id="SVGID_69_" d="M362.161,231.347l-26.977-8.386c0.139,0.042,0.279,0.079,0.421,0.109
							c0.347,0.071,0.7,0.106,1.058,0.106c1.919,0,3.976-1.018,6.181-3.008c3.338-3.004,5.632-7.467,6.965-13.462l26.978,8.386
							c-1.335,5.995-3.626,10.458-6.965,13.461c-2.205,1.991-4.262,3.009-6.183,3.009c-0.356,0-0.709-0.037-1.058-0.107
							C362.438,231.427,362.298,231.39,362.161,231.347z"/>
					</defs>
					<clipPath id="SVGID_70_">
						<use xlink:href="#SVGID_69_"  overflow="visible"/>
					</clipPath>
					<g clip-path="url(#SVGID_70_)" enable-background="new    ">
						<path fill="#999999" d="M362.161,231.347l-26.977-8.386c0.139,0.042,0.279,0.079,0.421,0.109
							c0.312,0.064,0.63,0.099,0.952,0.104l26.977,8.386c-0.321-0.007-0.639-0.042-0.954-0.105
							C362.438,231.427,362.298,231.39,362.161,231.347"/>
						<path fill="#949494" d="M363.532,231.562l-26.977-8.386c0.037,0,0.071,0.002,0.106,0.002c0.421,0,0.847-0.05,1.279-0.147
							l26.977,8.386c-0.433,0.097-0.859,0.146-1.281,0.146C363.603,231.565,363.568,231.563,363.532,231.562"/>
						<path fill="#8F8F8F" d="M364.918,231.418l-26.977-8.386c0.494-0.109,0.995-0.282,1.506-0.517l26.975,8.386
							C365.913,231.135,365.412,231.308,364.918,231.418"/>
						<path fill="#8A8A8A" d="M366.422,230.901l-26.975-8.386c0.744-0.342,1.508-0.816,2.29-1.419l26.978,8.385
							C367.93,230.085,367.166,230.558,366.422,230.901"/>
						<path fill="#858585" d="M368.714,229.481l-26.977-8.385c0.364-0.281,0.733-0.59,1.105-0.928
							c3.338-3.003,5.632-7.466,6.965-13.461l26.978,8.386c-1.335,5.995-3.626,10.458-6.965,13.461
							C369.448,228.891,369.078,229.2,368.714,229.481"/>
					</g>
				</g>
			</g>
			<g enable-background="new    ">
				<g>
					<defs>
						<path id="SVGID_71_" d="M330.116,237.731c0.661,0.205,1.342,0.385,2.043,0.538c8.991,2.794,17.984,5.59,26.976,8.386
							c-0.701-0.153-1.381-0.333-2.042-0.537C349.001,243.601,338.21,240.246,330.116,237.731z"/>
					</defs>
					<clipPath id="SVGID_72_">
						<use xlink:href="#SVGID_71_"  overflow="visible"/>
					</clipPath>
					<g clip-path="url(#SVGID_72_)" enable-background="new    ">
						<path fill="#5D3756" d="M357.094,246.116l-26.976-8.385c0.659,0.205,1.341,0.383,2.042,0.537
							c1.542,0.333,3.004,0.508,4.397,0.537l26.975,8.386c-1.392-0.028-2.854-0.203-4.397-0.537
							C358.434,246.502,357.755,246.321,357.094,246.116"/>
					</g>
				</g>
			</g>
			<g enable-background="new    ">
				<g>
					<defs>
						<path id="SVGID_73_" d="M344.305,185.883l26.976,8.386c1.953,0.605,3.567,2.494,4.756,5.816c1.023,2.815,1.522,5.63,1.48,8.27
							c-0.037,2.363-0.258,4.637-0.733,6.738l-26.978-8.386c0.476-2.1,0.697-4.375,0.733-6.738c0.042-2.64-0.456-5.455-1.479-8.269
							C347.872,188.377,346.259,186.49,344.305,185.883z"/>
					</defs>
					<clipPath id="SVGID_74_">
						<use xlink:href="#SVGID_73_"  overflow="visible"/>
					</clipPath>
					<g clip-path="url(#SVGID_74_)" enable-background="new    ">
						<path fill="#858585" d="M376.785,215.093l-26.978-8.386c0.476-2.1,0.697-4.375,0.733-6.738
							c0.042-2.64-0.456-5.455-1.479-8.269c-1.19-3.323-2.803-5.21-4.756-5.817l26.976,8.386c1.953,0.606,3.567,2.493,4.756,5.816
							c1.023,2.815,1.522,5.63,1.48,8.27C377.481,210.718,377.259,212.991,376.785,215.093"/>
					</g>
				</g>
			</g>
			<g enable-background="new    ">
				<g>
					<defs>
						<path id="SVGID_75_" d="M343.912,185.78c0.133,0.028,0.263,0.062,0.393,0.103l26.976,8.386
							c-0.131-0.041-0.261-0.076-0.394-0.104C362.794,191.647,352.004,188.294,343.912,185.78z"/>
					</defs>
					<clipPath id="SVGID_76_">
						<use xlink:href="#SVGID_75_"  overflow="visible"/>
					</clipPath>
					<g clip-path="url(#SVGID_76_)" enable-background="new    ">
						<path fill="#5D3756" d="M370.886,194.164l-26.974-8.386c0.133,0.029,0.263,0.063,0.393,0.104l26.976,8.386
							C371.151,194.227,371.021,194.193,370.886,194.164"/>
					</g>
				</g>
			</g>
			<g>
				<polygon fill="#4E2E48" points="382.983,289.214 356.008,280.827 318.073,259.009 345.047,267.395 				"/>
			</g>
			<g enable-background="new    ">
				<g>
					<defs>
						<path id="SVGID_77_" d="M361.568,199.807l-26.976-8.385c2.621-3.881,5.342-5.765,8.105-5.765c0.406,0,0.809,0.041,1.216,0.121
							l26.975,8.385c-0.406-0.08-0.809-0.121-1.213-0.121C366.909,194.043,364.189,195.927,361.568,199.807z"/>
					</defs>
					<clipPath id="SVGID_78_">
						<use xlink:href="#SVGID_77_"  overflow="visible"/>
					</clipPath>
					<g clip-path="url(#SVGID_78_)" enable-background="new    ">
						<path fill="#51304A" d="M361.568,199.807l-26.976-8.385c1.197-1.772,2.414-3.126,3.646-4.077l26.977,8.386
							C363.98,196.682,362.765,198.037,361.568,199.807"/>
						<path fill="#54324D" d="M365.215,195.731l-26.977-8.386c0.577-0.445,1.158-0.801,1.741-1.069l26.976,8.386
							C366.373,194.93,365.792,195.287,365.215,195.731"/>
						<path fill="#573450" d="M366.955,194.662l-26.976-8.386c0.457-0.21,0.916-0.367,1.375-0.47l26.975,8.386
							C367.869,194.296,367.414,194.452,366.955,194.662"/>
						<path fill="#5A3553" d="M368.33,194.193l-26.975-8.386c0.447-0.099,0.896-0.149,1.343-0.149c0.041,0,0.083,0.001,0.121,0.002
							l26.976,8.385c-0.039,0-0.081,0-0.12,0C369.225,194.043,368.778,194.093,368.33,194.193"/>
						<path fill="#5D3756" d="M369.795,194.045l-26.976-8.385c0.364,0.007,0.729,0.046,1.094,0.12l26.974,8.386
							C370.524,194.092,370.158,194.051,369.795,194.045"/>
					</g>
				</g>
			</g>
			<g enable-background="new    ">
				<g>
					<defs>
						<path id="SVGID_79_" d="M330.454,217.164c-1.024-2.815-1.507-5.645-1.466-8.284c8.992,2.795,17.984,5.59,26.977,8.386
							c-0.042,2.64,0.441,5.469,1.467,8.284c1.183,3.308,2.789,5.193,4.728,5.797l-26.975-8.386
							C333.243,222.359,331.64,220.474,330.454,217.164z"/>
					</defs>
					<clipPath id="SVGID_80_">
						<use xlink:href="#SVGID_79_"  overflow="visible"/>
					</clipPath>
					<g clip-path="url(#SVGID_80_)" enable-background="new    ">
						<path fill="#51304A" d="M362.161,231.347l-26.977-8.386c-1.941-0.604-3.544-2.488-4.729-5.797
							c-1.024-2.815-1.508-5.645-1.466-8.284c0.037-2.261,0.243-4.535,0.718-6.638c0.87-3.733,2.423-7.364,4.886-10.821
							l26.976,8.385c-2.462,3.457-4.016,7.088-4.885,10.822c-0.476,2.101-0.682,4.375-0.717,6.636
							c-0.042,2.64,0.441,5.469,1.467,8.284C358.615,228.858,360.22,230.743,362.161,231.347"/>
					</g>
				</g>
			</g>
			<g enable-background="new    ">
				<g>
					<defs>
						<path id="SVGID_81_" d="M328.989,208.881c0.037-2.261,0.243-4.535,0.718-6.638c8.993,2.795,17.983,5.591,26.977,8.386
							c-0.476,2.101-0.682,4.376-0.717,6.636v0.001C346.972,214.471,337.98,211.677,328.989,208.881z"/>
					</defs>
					<clipPath id="SVGID_82_">
						<use xlink:href="#SVGID_81_"  overflow="visible"/>
					</clipPath>
					<g clip-path="url(#SVGID_82_)" enable-background="new    ">
						<path fill="#51304A" d="M362.161,231.347l-26.977-8.386c-1.941-0.604-3.544-2.488-4.729-5.797
							c-1.024-2.815-1.508-5.645-1.466-8.284c0.037-2.261,0.243-4.535,0.718-6.638c0.87-3.733,2.423-7.364,4.886-10.821
							l26.976,8.385c-2.462,3.457-4.016,7.088-4.885,10.822c-0.476,2.101-0.682,4.375-0.717,6.636
							c-0.042,2.64,0.441,5.469,1.467,8.284C358.615,228.858,360.22,230.743,362.161,231.347"/>
					</g>
				</g>
			</g>
			<g>
				<path fill="#8B5280" d="M370.886,194.164c2.13,0.466,3.881,2.377,5.15,5.921c1.023,2.815,1.522,5.63,1.48,8.27
					c-0.037,2.363-0.258,4.637-0.733,6.738c-1.335,5.995-3.626,10.458-6.965,13.461c-2.205,1.991-4.262,3.009-6.183,3.009
					c-0.356,0-0.709-0.037-1.058-0.107c-2.13-0.452-3.88-2.364-5.147-5.906c-1.025-2.815-1.509-5.645-1.467-8.284
					c0.035-2.261,0.241-4.535,0.717-6.636c0.87-3.734,2.423-7.365,4.885-10.822c2.621-3.881,5.341-5.764,8.107-5.764
					C370.079,194.043,370.481,194.084,370.886,194.164z"/>
			</g>
			<g enable-background="new    ">
				<g>
					<defs>
						<path id="SVGID_83_" d="M329.706,202.244c0.87-3.733,2.423-7.365,4.886-10.821l26.976,8.385
							c-2.462,3.457-4.016,7.088-4.885,10.822C347.69,207.834,338.699,205.039,329.706,202.244z"/>
					</defs>
					<clipPath id="SVGID_84_">
						<use xlink:href="#SVGID_83_"  overflow="visible"/>
					</clipPath>
					<g clip-path="url(#SVGID_84_)" enable-background="new    ">
						<path fill="#51304A" d="M362.161,231.347l-26.977-8.386c-1.941-0.604-3.544-2.488-4.729-5.797
							c-1.024-2.815-1.508-5.645-1.466-8.284c0.037-2.261,0.243-4.535,0.718-6.638c0.87-3.733,2.423-7.364,4.886-10.821
							l26.976,8.385c-2.462,3.457-4.016,7.088-4.885,10.822c-0.476,2.101-0.682,4.375-0.717,6.636
							c-0.042,2.64,0.441,5.469,1.467,8.284C358.615,228.858,360.22,230.743,362.161,231.347"/>
					</g>
				</g>
			</g>
			<g>
				<path fill="#FFFFFF" d="M388.376,189.89c2.759,4.916,4.091,10.836,3.979,17.925c-0.147,9.363-2.588,17.91-7.328,25.742
					c-5.47,9.087-12.479,13.637-21.099,13.637c-1.51,0-3.103-0.173-4.792-0.54c-6.276-1.371-10.937-4.828-14.036-10.559
					c-2.771-5.003-4.102-10.998-3.992-17.998c0.147-9.378,2.589-17.925,7.342-25.654c5.556-9.103,12.564-13.637,21.083-13.637
					c1.51,0,3.103,0.175,4.792,0.54C380.531,180.716,385.262,184.158,388.376,189.89z M376.785,215.093
					c0.474-2.101,0.696-4.375,0.733-6.738c0.042-2.639-0.457-5.455-1.48-8.27c-1.269-3.544-3.021-5.456-5.149-5.92
					c-0.406-0.081-0.809-0.121-1.213-0.121c-2.766,0-5.486,1.883-8.107,5.764c-2.462,3.457-4.016,7.088-4.885,10.822
					c-0.477,2.101-0.683,4.375-0.717,6.636c-0.042,2.64,0.44,5.469,1.467,8.285c1.268,3.543,3.017,5.455,5.147,5.906
					c0.349,0.071,0.702,0.108,1.058,0.108c1.92,0,3.978-1.019,6.183-3.009C373.159,225.55,375.449,221.087,376.785,215.093"/>
			</g>
			<g enable-background="new    ">
				<g>
					<defs>
						<path id="SVGID_85_" d="M357.094,246.116l-26.976-8.385c-5.256-1.634-9.241-4.932-11.995-10.021
							c-2.772-5.004-4.103-10.999-3.991-17.999c0.147-9.378,2.589-17.925,7.342-25.654c5.557-9.102,12.564-13.638,21.084-13.638
							c1.51,0,3.104,0.174,4.792,0.54c0.681,0.151,1.344,0.327,1.988,0.527c8.995,2.793,17.984,5.59,26.978,8.386
							c-0.646-0.201-1.31-0.375-1.989-0.527c-1.69-0.366-3.282-0.54-4.792-0.54c-8.52,0-15.529,4.535-21.084,13.637
							c-4.753,7.729-7.194,16.277-7.342,25.654c-0.109,7,1.221,12.995,3.992,17.997C347.853,241.186,351.84,244.483,357.094,246.116
							z"/>
					</defs>
					<clipPath id="SVGID_86_">
						<use xlink:href="#SVGID_85_"  overflow="visible"/>
					</clipPath>
					<g clip-path="url(#SVGID_86_)" enable-background="new    ">
						<path fill="#858585" d="M357.094,246.116l-26.976-8.385c-5.256-1.634-9.241-4.932-11.995-10.021
							c-2.772-5.004-4.103-10.999-3.991-17.999c0.147-9.378,2.589-17.925,7.342-25.654c2.351-3.852,4.962-6.886,7.839-9.105
							l26.976,8.386c-2.876,2.219-5.487,5.252-7.839,9.105c-4.753,7.729-7.195,16.276-7.342,25.654
							c-0.109,7,1.221,12.995,3.992,17.997C347.853,241.186,351.84,244.483,357.094,246.116"/>
						<path fill="#8A8A8A" d="M356.288,183.339l-26.976-8.386c1.376-1.062,2.813-1.937,4.313-2.626l26.976,8.386
							C359.104,181.402,357.665,182.277,356.288,183.339"/>
						<path fill="#8F8F8F" d="M360.602,180.714l-26.976-8.386c1.323-0.607,2.693-1.07,4.111-1.388l26.976,8.386
							C363.295,179.642,361.925,180.106,360.602,180.714"/>
						<path fill="#949494" d="M364.714,179.326l-26.976-8.386c1.549-0.347,3.155-0.52,4.82-0.52c0.13,0,0.263,0.001,0.393,0.004
							l26.977,8.386c-0.131-0.001-0.263-0.003-0.395-0.003C367.869,178.806,366.263,178.979,364.714,179.326"/>
						<path fill="#999999" d="M369.927,178.81l-26.977-8.386c1.393,0.027,2.856,0.202,4.399,0.535
							c0.681,0.151,1.344,0.327,1.988,0.527l26.977,8.386c-0.646-0.201-1.309-0.375-1.989-0.527
							C372.784,179.012,371.321,178.838,369.927,178.81"/>
					</g>
				</g>
			</g>
			<g enable-background="new    ">
				<g>
					<defs>
						<path id="SVGID_87_" d="M302.117,245.445c0.911-1.721,1.297-3.72,1.163-5.994c7.941,2.469,15.882,4.937,23.823,7.406
							l3.152,0.979c0.136,2.276-0.253,4.273-1.163,5.997c-1.099,2.011-2.713,3.106-4.766,3.28
							c-8.992-2.794-17.983-5.59-26.977-8.386C299.404,248.551,301.017,247.457,302.117,245.445z"/>
					</defs>
					<clipPath id="SVGID_88_">
						<use xlink:href="#SVGID_87_"  overflow="visible"/>
					</clipPath>
					<g clip-path="url(#SVGID_88_)" enable-background="new    ">
						<path fill="#5A3553" d="M323.712,257.127l-26.977-8.386c0.044,0.002,0.089,0.004,0.131,0.004c0.16,0,0.322-0.007,0.482-0.02
							c0.287-0.026,0.564-0.067,0.832-0.128l26.978,8.386c-0.27,0.061-0.547,0.101-0.832,0.126
							c-0.163,0.013-0.324,0.019-0.483,0.019C323.799,257.131,323.756,257.129,323.712,257.127"/>
						<path fill="#573450" d="M325.158,256.985l-26.978-8.386c0.391-0.085,0.761-0.211,1.111-0.371l26.977,8.384
							C325.919,256.774,325.548,256.898,325.158,256.985"/>
						<path fill="#54324D" d="M326.269,256.612l-26.977-8.384c0.37-0.171,0.72-0.38,1.045-0.632l26.976,8.386
							C326.987,256.233,326.64,256.442,326.269,256.612"/>
						<path fill="#51304A" d="M327.314,255.981l-26.976-8.386c0.69-0.531,1.286-1.248,1.778-2.15
							c0.911-1.721,1.297-3.72,1.163-5.994l26.976,8.384c0.136,2.276-0.253,4.273-1.163,5.997
							C328.6,254.732,328.005,255.447,327.314,255.981"/>
					</g>
				</g>
			</g>
			<g enable-background="new    ">
				<g>
					<defs>
						<path id="SVGID_89_" d="M296.867,248.745c0.16,0,0.322-0.007,0.482-0.02c8.994,2.796,17.986,5.59,26.978,8.386
							c-0.163,0.013-0.324,0.019-0.483,0.019c-0.656,0-1.319-0.102-1.979-0.308l-26.977-8.386
							C295.549,248.643,296.21,248.745,296.867,248.745z"/>
					</defs>
					<clipPath id="SVGID_90_">
						<use xlink:href="#SVGID_89_"  overflow="visible"/>
					</clipPath>
					<g clip-path="url(#SVGID_90_)" enable-background="new    ">
						<path fill="#5D3756" d="M321.864,256.823l-26.975-8.386c0.615,0.192,1.233,0.294,1.847,0.304l26.977,8.386
							C323.098,257.115,322.481,257.015,321.864,256.823"/>
						<path fill="#5A3553" d="M323.712,257.127l-26.977-8.386c0.044,0.002,0.089,0.004,0.131,0.004c0.16,0,0.322-0.007,0.482-0.02
							c0.287-0.026,0.564-0.067,0.832-0.128l26.978,8.386c-0.27,0.061-0.547,0.101-0.832,0.126
							c-0.163,0.013-0.324,0.019-0.483,0.019C323.799,257.131,323.756,257.129,323.712,257.127"/>
					</g>
				</g>
			</g>
			<g enable-background="new    ">
				<g>
					<defs>
						<path id="SVGID_91_" d="M306.302,204.8c8.991,2.797,17.983,5.591,26.977,8.386c-2.454,14.816-3.434,26.366-3.023,34.649
							l-26.976-8.384C302.868,231.167,303.848,219.616,306.302,204.8z"/>
					</defs>
					<clipPath id="SVGID_92_">
						<use xlink:href="#SVGID_91_"  overflow="visible"/>
					</clipPath>
					<g clip-path="url(#SVGID_92_)" enable-background="new    ">
						<path fill="#51304A" d="M330.255,247.835l-26.976-8.384c-0.411-8.284,0.568-19.835,3.023-34.654
							c2.549-15.284,5.571-26.282,9.137-32.831c0.732-1.372,1.024-2.741,0.952-4.375l26.976,8.385
							c0.072,1.634-0.22,3.004-0.952,4.375c-3.567,6.549-6.587,17.545-9.137,32.831
							C330.824,228.001,329.844,239.552,330.255,247.835"/>
					</g>
				</g>
			</g>
			<g enable-background="new    ">
				<g>
					<defs>
						<path id="SVGID_93_" d="M315.44,171.966c0.732-1.372,1.024-2.741,0.952-4.375l26.976,8.385
							c0.072,1.634-0.22,3.004-0.952,4.375c0,0.001,0,0.001,0,0.001c-8.994-2.795-17.986-5.59-26.978-8.385l0,0
							C315.438,171.968,315.438,171.966,315.44,171.966z"/>
					</defs>
					<clipPath id="SVGID_94_">
						<use xlink:href="#SVGID_93_"  overflow="visible"/>
					</clipPath>
					<g clip-path="url(#SVGID_94_)" enable-background="new    ">
						<path fill="#51304A" d="M330.255,247.835l-26.976-8.384c-0.411-8.284,0.568-19.835,3.023-34.654
							c2.549-15.284,5.571-26.282,9.137-32.831c0.732-1.372,1.024-2.741,0.952-4.375l26.976,8.385
							c0.072,1.634-0.22,3.004-0.952,4.375c-3.567,6.549-6.587,17.545-9.137,32.831
							C330.824,228.001,329.844,239.552,330.255,247.835"/>
					</g>
				</g>
			</g>
			<g enable-background="new    ">
				<g>
					<defs>
						<path id="SVGID_95_" d="M306.302,204.797c2.549-15.284,5.571-26.28,9.136-32.829c8.992,2.795,17.983,5.59,26.975,8.386
							c-3.565,6.549-6.585,17.545-9.135,32.83c-5.665-1.79-11.346-3.524-17.019-5.287c-3.318-1.032-6.639-2.063-9.958-3.096
							C306.302,204.8,306.302,204.798,306.302,204.797z"/>
					</defs>
					<clipPath id="SVGID_96_">
						<use xlink:href="#SVGID_95_"  overflow="visible"/>
					</clipPath>
					<g clip-path="url(#SVGID_96_)" enable-background="new    ">
						<path fill="#51304A" d="M330.255,247.835l-26.976-8.384c-0.411-8.284,0.568-19.835,3.023-34.654
							c2.549-15.284,5.571-26.282,9.137-32.831c0.732-1.372,1.024-2.741,0.952-4.375l26.976,8.385
							c0.072,1.634-0.22,3.004-0.952,4.375c-3.567,6.549-6.587,17.545-9.137,32.831
							C330.824,228.001,329.844,239.552,330.255,247.835"/>
					</g>
				</g>
			</g>
			<g enable-background="new    ">
				<g>
					<defs>
						<path id="SVGID_97_" d="M313.723,162.414c5.965,1.853,11.929,3.708,17.892,5.561c3.028,0.941,6.057,1.882,9.084,2.824
							c1.675,1.356,2.528,3.091,2.669,5.176l-26.976-8.385C316.251,165.505,315.396,163.771,313.723,162.414z"/>
					</defs>
					<clipPath id="SVGID_98_">
						<use xlink:href="#SVGID_97_"  overflow="visible"/>
					</clipPath>
					<g clip-path="url(#SVGID_98_)" enable-background="new    ">
						<path fill="#51304A" d="M343.367,175.976l-26.976-8.385c-0.14-2.086-0.994-3.821-2.668-5.177
							c-0.867-0.717-1.785-1.229-2.758-1.531l26.976,8.386c0.975,0.302,1.891,0.814,2.757,1.53
							C342.373,172.156,343.226,173.89,343.367,175.976"/>
					</g>
				</g>
			</g>
			<g enable-background="new    ">
				<g>
					<defs>
						<path id="SVGID_99_" d="M313.723,162.414c-0.867-0.717-1.785-1.229-2.758-1.531l26.976,8.386
							c0.975,0.302,1.891,0.814,2.757,1.53C331.706,168.001,322.714,165.209,313.723,162.414L313.723,162.414L313.723,162.414z"/>
					</defs>
					<clipPath id="SVGID_100_">
						<use xlink:href="#SVGID_99_"  overflow="visible"/>
					</clipPath>
					<g clip-path="url(#SVGID_100_)" enable-background="new    ">
						<path fill="#51304A" d="M343.367,175.976l-26.976-8.385c-0.14-2.086-0.994-3.821-2.668-5.177
							c-0.867-0.717-1.785-1.229-2.758-1.531l26.976,8.386c0.975,0.302,1.891,0.814,2.757,1.53
							C342.373,172.156,343.226,173.89,343.367,175.976"/>
					</g>
				</g>
			</g>
			<g enable-background="new    ">
				<g>
					<defs>
						<path id="SVGID_101_" d="M310.965,160.883c8.992,2.795,17.983,5.59,26.976,8.386c-0.689-0.214-1.402-0.322-2.145-0.322
							l-26.975-8.386C309.563,160.561,310.277,160.669,310.965,160.883z"/>
					</defs>
					<clipPath id="SVGID_102_">
						<use xlink:href="#SVGID_101_"  overflow="visible"/>
					</clipPath>
					<g clip-path="url(#SVGID_102_)" enable-background="new    ">
						<path fill="#949494" d="M335.796,168.947l-26.975-8.386c0.051,0,0.102,0,0.153,0.001l26.975,8.386
							C335.898,168.948,335.847,168.947,335.796,168.947"/>
						<path fill="#999999" d="M335.948,168.948l-26.975-8.386c0.686,0.014,1.352,0.121,1.992,0.321l26.976,8.386
							C337.3,169.07,336.637,168.962,335.948,168.948"/>
					</g>
				</g>
			</g>
			<g enable-background="new    ">
				<g>
					<defs>
						<path id="SVGID_103_" d="M335.128,168.976l-26.977-8.386c0.226-0.02,0.45-0.029,0.67-0.029l26.975,8.386
							C335.575,168.947,335.354,168.956,335.128,168.976z"/>
					</defs>
					<clipPath id="SVGID_104_">
						<use xlink:href="#SVGID_103_"  overflow="visible"/>
					</clipPath>
					<g clip-path="url(#SVGID_104_)" enable-background="new    ">
						<path fill="#949494" d="M335.128,168.976l-26.977-8.386c0.226-0.02,0.45-0.029,0.67-0.029l26.975,8.386
							C335.575,168.947,335.354,168.956,335.128,168.976"/>
					</g>
				</g>
			</g>
			<g enable-background="new    ">
				<g>
					<defs>
						<path id="SVGID_105_" d="M316.686,222.998l-26.977-8.386c2.685-23.104,6.852-39.744,12.524-50.026
							c1.365-2.538,3.353-3.821,5.918-3.996l26.977,8.386c-2.566,0.175-4.553,1.458-5.917,3.996
							C323.536,183.254,319.37,199.895,316.686,222.998z"/>
					</defs>
					<clipPath id="SVGID_106_">
						<use xlink:href="#SVGID_105_"  overflow="visible"/>
					</clipPath>
					<g clip-path="url(#SVGID_106_)" enable-background="new    ">
						<path fill="#858585" d="M316.686,222.998l-26.977-8.386c2.685-23.104,6.852-39.744,12.524-50.026
							c0.6-1.112,1.317-1.985,2.149-2.626l26.978,8.386c-0.834,0.643-1.552,1.515-2.149,2.626
							C323.536,183.254,319.37,199.895,316.686,222.998"/>
						<path fill="#8A8A8A" d="M331.361,170.345l-26.978-8.386c0.388-0.3,0.804-0.549,1.243-0.75l26.975,8.386
							C332.163,169.796,331.748,170.046,331.361,170.345"/>
						<path fill="#8F8F8F" d="M332.601,169.595l-26.975-8.386c0.425-0.195,0.872-0.345,1.343-0.45l26.978,8.386
							C333.473,169.249,333.026,169.399,332.601,169.595"/>
						<path fill="#949494" d="M333.946,169.145l-26.977-8.386c0.379-0.086,0.772-0.142,1.182-0.169l26.977,8.386
							C334.719,169.004,334.323,169.06,333.946,169.145"/>
					</g>
				</g>
			</g>
			<g enable-background="new    ">
				<g>
					<defs>
						<path id="SVGID_107_" d="M289.71,214.612c-3.227-8.723-5.913-19.003-7.945-31.095c8.992,2.796,17.985,5.591,26.978,8.386
							c2.032,12.089,4.717,22.372,7.944,31.094C308.592,220.483,297.801,217.128,289.71,214.612z"/>
					</defs>
					<clipPath id="SVGID_108_">
						<use xlink:href="#SVGID_107_"  overflow="visible"/>
					</clipPath>
					<g clip-path="url(#SVGID_108_)" enable-background="new    ">
						<path fill="#51304A" d="M316.686,222.998l-26.977-8.386c-3.227-8.723-5.913-19.003-7.945-31.095
							c-0.696-4.158-2.264-6.625-4.751-7.398l26.976,8.385c2.488,0.773,4.057,3.242,4.753,7.4
							C310.774,203.993,313.459,214.276,316.686,222.998"/>
					</g>
				</g>
			</g>
			<g enable-background="new    ">
				<g>
					<defs>
						<path id="SVGID_109_" d="M321.864,256.823l-26.975-8.386c-1.514-0.468-3.027-1.484-4.497-3.081
							c-8.125-8.633-14.504-21.555-19.034-38.736l26.976,8.385c4.531,17.182,10.908,30.104,19.034,38.737
							C318.837,255.338,320.352,256.354,321.864,256.823z"/>
					</defs>
					<clipPath id="SVGID_110_">
						<use xlink:href="#SVGID_109_"  overflow="visible"/>
					</clipPath>
					<g clip-path="url(#SVGID_110_)" enable-background="new    ">
						<path fill="#858585" d="M321.864,256.823l-26.975-8.386c-1.514-0.468-3.027-1.484-4.497-3.081
							c-8.125-8.633-14.504-21.555-19.034-38.736l26.976,8.385c4.531,17.182,10.908,30.104,19.034,38.737
							C318.837,255.338,320.352,256.354,321.864,256.823"/>
					</g>
				</g>
			</g>
			<g enable-background="new    ">
				<g>
					<defs>
						<path id="SVGID_111_" d="M281.764,183.517c-0.696-4.158-2.264-6.625-4.751-7.398l26.976,8.386
							c2.488,0.773,4.057,3.241,4.753,7.398C299.75,189.109,290.757,186.314,281.764,183.517z"/>
					</defs>
					<clipPath id="SVGID_112_">
						<use xlink:href="#SVGID_111_"  overflow="visible"/>
					</clipPath>
					<g clip-path="url(#SVGID_112_)" enable-background="new    ">
						<path fill="#51304A" d="M316.686,222.998l-26.977-8.386c-3.227-8.723-5.913-19.003-7.945-31.095
							c-0.696-4.158-2.264-6.625-4.751-7.398l26.976,8.385c2.488,0.773,4.057,3.242,4.753,7.4
							C310.774,203.993,313.459,214.276,316.686,222.998"/>
					</g>
				</g>
			</g>
			<g enable-background="new    ">
				<g>
					<defs>
						<path id="SVGID_113_" d="M285.129,241.199l-26.975-8.386c2.855-5.833,7.253-14.554,13.205-26.193l26.976,8.385
							C292.383,226.645,287.984,235.365,285.129,241.199z"/>
					</defs>
					<clipPath id="SVGID_114_">
						<use xlink:href="#SVGID_113_"  overflow="visible"/>
					</clipPath>
					<g clip-path="url(#SVGID_114_)" enable-background="new    ">
						<path fill="#51304A" d="M285.129,241.199l-26.975-8.386c2.855-5.833,7.253-14.554,13.205-26.193l26.976,8.385
							C292.383,226.645,287.984,235.365,285.129,241.199"/>
					</g>
				</g>
			</g>
			<g enable-background="new    ">
				<g>
					<defs>
						<path id="SVGID_115_" d="M277.012,176.119c8.992,2.795,17.984,5.59,26.976,8.386c-0.567-0.177-1.18-0.266-1.843-0.266
							c-0.184,0-0.371,0.006-0.564,0.02c-2.666,0.176-4.919,1.999-6.752,5.454l-26.975-8.385c1.834-3.456,4.086-5.279,6.752-5.455
							c0.192-0.014,0.379-0.019,0.563-0.019C275.83,175.855,276.446,175.944,277.012,176.119z"/>
					</defs>
					<clipPath id="SVGID_116_">
						<use xlink:href="#SVGID_115_"  overflow="visible"/>
					</clipPath>
					<g clip-path="url(#SVGID_116_)" enable-background="new    ">
						<path fill="#858585" d="M294.829,189.715l-26.975-8.385c0.955-1.801,2.023-3.159,3.207-4.071l26.976,8.385
							C296.854,186.557,295.785,187.914,294.829,189.715"/>
						<path fill="#8A8A8A" d="M298.036,185.644l-26.976-8.385c0.438-0.339,0.893-0.616,1.362-0.831l26.975,8.385
							C298.927,185.03,298.473,185.307,298.036,185.644"/>
						<path fill="#8F8F8F" d="M299.397,184.814l-26.975-8.385c0.399-0.185,0.812-0.324,1.235-0.419l26.977,8.386
							C300.209,184.49,299.797,184.63,299.397,184.814"/>
						<path fill="#949494" d="M300.635,184.396l-26.977-8.386c0.309-0.069,0.626-0.115,0.947-0.136
							c0.192-0.014,0.379-0.019,0.563-0.019c0.049,0,0.1,0,0.151,0l26.976,8.386c-0.05,0-0.101-0.001-0.15-0.001
							c-0.184,0-0.371,0.006-0.564,0.02C301.26,184.281,300.942,184.327,300.635,184.396"/>
						<path fill="#999999" d="M302.294,184.242l-26.976-8.386c0.606,0.013,1.171,0.1,1.694,0.263l26.976,8.386
							C303.465,184.342,302.901,184.255,302.294,184.242"/>
					</g>
				</g>
			</g>
			<g enable-background="new    ">
				<g>
					<defs>
						<path id="SVGID_117_" d="M244.295,248.643c3.997-0.346,8.501-5.625,13.86-15.831l26.975,8.386
							c-5.355,10.204-9.861,15.482-13.858,15.83C262.278,254.234,253.282,251.456,244.295,248.643z"/>
					</defs>
					<clipPath id="SVGID_118_">
						<use xlink:href="#SVGID_117_"  overflow="visible"/>
					</clipPath>
					<g clip-path="url(#SVGID_118_)" enable-background="new    ">
						<path fill="#5A3553" d="M271.197,257.034l-26.975-8.386c0.25-0.017,0.506-0.055,0.761-0.113l26.976,8.386
							C271.703,256.978,271.449,257.016,271.197,257.034"/>
						<path fill="#573450" d="M271.959,256.921l-26.976-8.386c0.417-0.093,0.838-0.237,1.267-0.437l26.975,8.386
							C272.798,256.683,272.376,256.828,271.959,256.921"/>
						<path fill="#54324D" d="M273.224,256.486l-26.975-8.386c0.603-0.278,1.219-0.659,1.847-1.144l26.976,8.385
							C274.443,255.827,273.828,256.208,273.224,256.486"/>
						<path fill="#51304A" d="M275.072,255.341l-26.976-8.385c3.017-2.329,6.332-7.043,10.059-14.143l26.975,8.386
							C281.404,248.298,278.089,253.012,275.072,255.341"/>
					</g>
				</g>
			</g>
			<g enable-background="new    ">
				<g>
					<defs>
						<path id="SVGID_119_" d="M244.295,248.643c0.014,0,0.029,0.008,0.041,0.013c8.979,2.79,17.957,5.58,26.935,8.373
							c-0.024,0-0.048,0.003-0.074,0.005l-26.975-8.386C244.244,248.646,244.271,248.645,244.295,248.643z"/>
					</defs>
					<clipPath id="SVGID_120_">
						<use xlink:href="#SVGID_119_"  overflow="visible"/>
					</clipPath>
					<g clip-path="url(#SVGID_120_)" enable-background="new    ">
						<path fill="#5A3553" d="M271.197,257.034l-26.975-8.386c0.25-0.017,0.506-0.055,0.761-0.113l26.976,8.386
							C271.703,256.978,271.449,257.016,271.197,257.034"/>
					</g>
				</g>
			</g>
			<g enable-background="new    ">
				<g>
					<defs>
						<path id="SVGID_121_" d="M243.963,248.64c0.085,0.006,0.17,0.009,0.258,0.009l26.975,8.386c-0.085,0-0.171-0.003-0.257-0.008
							C261.947,254.231,252.956,251.434,243.963,248.64z"/>
					</defs>
					<clipPath id="SVGID_122_">
						<use xlink:href="#SVGID_121_"  overflow="visible"/>
					</clipPath>
					<g clip-path="url(#SVGID_122_)" enable-background="new    ">
						<path fill="#5D3756" d="M270.12,256.87l-26.978-8.386c0.327,0.102,0.658,0.155,0.999,0.162l26.976,8.386
							C270.778,257.026,270.445,256.972,270.12,256.87"/>
						<path fill="#5A3553" d="M271.117,257.032l-26.976-8.386c0.028,0.001,0.054,0.001,0.08,0.001l26.975,8.386
							C271.172,257.034,271.145,257.034,271.117,257.032"/>
					</g>
				</g>
			</g>
			<g enable-background="new    ">
				<g>
					<defs>
						<path id="SVGID_123_" d="M243.963,248.64c0.069,0.014,0.159,0.048,0.227,0.071c8.916,2.771,17.833,5.542,26.75,8.315
							c-0.279-0.02-0.552-0.073-0.821-0.155l-26.976-8.386C243.411,248.569,243.685,248.62,243.963,248.64z"/>
					</defs>
					<clipPath id="SVGID_124_">
						<use xlink:href="#SVGID_123_"  overflow="visible"/>
					</clipPath>
					<g clip-path="url(#SVGID_124_)" enable-background="new    ">
						<path fill="#5D3756" d="M270.12,256.87l-26.978-8.386c0.327,0.102,0.658,0.155,0.999,0.162l26.976,8.386
							C270.778,257.026,270.445,256.972,270.12,256.87"/>
					</g>
				</g>
			</g>
			<g>
				<polygon fill="#818181" points="274.773,227.636 247.796,219.25 267.853,181.33 294.829,189.715 				"/>
			</g>
			<g enable-background="new    ">
				<g>
					<defs>
						<path id="SVGID_125_" d="M270.178,256.834l-26.975-8.384c-1.936-0.603-3.475-2.632-4.831-6.097l26.975,8.385
							C266.704,254.204,268.244,256.233,270.178,256.834z"/>
					</defs>
					<clipPath id="SVGID_126_">
						<use xlink:href="#SVGID_125_"  overflow="visible"/>
					</clipPath>
					<g clip-path="url(#SVGID_126_)" enable-background="new    ">
						<path fill="#858585" d="M270.178,256.834l-26.975-8.384c-1.936-0.603-3.475-2.632-4.831-6.097l26.975,8.385
							C266.704,254.204,268.244,256.233,270.178,256.834"/>
					</g>
				</g>
			</g>
			<g enable-background="new    ">
				<g>
					<defs>
						<path id="SVGID_127_" d="M247.796,219.25c-2.984-13.183-5.75-29.284-8.215-48.287c8.994,2.795,17.985,5.591,26.978,8.385
							c2.464,19.003,5.23,35.103,8.214,48.287C266.679,225.12,255.888,221.766,247.796,219.25z"/>
					</defs>
					<clipPath id="SVGID_128_">
						<use xlink:href="#SVGID_127_"  overflow="visible"/>
					</clipPath>
					<g clip-path="url(#SVGID_128_)" enable-background="new    ">
						<path fill="#51304A" d="M274.773,227.636l-26.978-8.386c-2.984-13.185-5.751-29.286-8.215-48.291
							c-0.388-3.402-1.815-5.489-4.278-6.255l26.976,8.386c2.464,0.765,3.892,2.853,4.278,6.255
							C269.022,198.35,271.789,214.451,274.773,227.636"/>
					</g>
				</g>
			</g>
			<path fill="none" d="M255.405,266.51l-26.975-8.387c-8.287-2.576-14.218-10.485-14.067-19.855l26.975,8.386
				C241.189,256.025,247.118,263.934,255.405,266.51z"/>
			<g enable-background="new    ">
				<g>
					<defs>
						<path id="SVGID_129_" d="M239.581,170.959c-0.389-3.401-1.816-5.489-4.278-6.254l26.978,8.386
							c2.462,0.766,3.89,2.853,4.276,6.255c0.002,0.001,0.002,0.003,0.002,0.003c-8.992-2.793-17.984-5.59-26.978-8.385
							C239.581,170.962,239.581,170.961,239.581,170.959z"/>
					</defs>
					<clipPath id="SVGID_130_">
						<use xlink:href="#SVGID_129_"  overflow="visible"/>
					</clipPath>
					<g clip-path="url(#SVGID_130_)" enable-background="new    ">
						<path fill="#51304A" d="M274.773,227.636l-26.978-8.386c-2.984-13.185-5.751-29.286-8.215-48.291
							c-0.388-3.402-1.815-5.489-4.278-6.255l26.976,8.386c2.464,0.765,3.892,2.853,4.278,6.255
							C269.022,198.35,271.789,214.451,274.773,227.636"/>
					</g>
				</g>
			</g>
			<g enable-background="new    ">
				<g>
					<defs>
						<path id="SVGID_131_" d="M265.347,250.738l-26.975-8.385c-4.343-11.917-8.866-34.917-13.573-69.031l26.976,8.386
							C256.482,215.822,261.006,238.822,265.347,250.738z"/>
					</defs>
					<clipPath id="SVGID_132_">
						<use xlink:href="#SVGID_131_"  overflow="visible"/>
					</clipPath>
					<g clip-path="url(#SVGID_132_)" enable-background="new    ">
						<path fill="#858585" d="M265.347,250.738l-26.975-8.385c-4.343-11.917-8.866-34.917-13.573-69.031l26.976,8.386
							C256.482,215.822,261.006,238.822,265.347,250.738"/>
					</g>
				</g>
			</g>
			<g enable-background="new    ">
				<g>
					<defs>
						<path id="SVGID_133_" d="M235.303,164.704c8.992,2.794,17.984,5.59,26.976,8.386c-0.712-0.221-1.512-0.334-2.399-0.334
							c-0.302,0-0.617,0.015-0.94,0.041c-2.496,0.175-4.378,1.094-5.643,2.814l-26.976-8.386c1.266-1.722,3.147-2.64,5.643-2.814
							c0.324-0.027,0.638-0.041,0.941-0.041C233.791,164.372,234.591,164.483,235.303,164.704z"/>
					</defs>
					<clipPath id="SVGID_134_">
						<use xlink:href="#SVGID_133_"  overflow="visible"/>
					</clipPath>
					<g clip-path="url(#SVGID_134_)" enable-background="new    ">
						<path fill="#858585" d="M253.295,175.612l-26.976-8.386c0.371-0.506,0.798-0.944,1.275-1.312l26.977,8.385
							C254.094,174.669,253.668,175.106,253.295,175.612"/>
						<path fill="#8A8A8A" d="M254.573,174.3l-26.978-8.385c0.391-0.3,0.814-0.555,1.274-0.767l26.975,8.386
							C255.387,173.745,254.961,174,254.573,174.3"/>
						<path fill="#8F8F8F" d="M255.845,173.534l-26.975-8.386c0.483-0.221,1.003-0.394,1.565-0.519l26.976,8.385
							C256.849,173.139,256.329,173.312,255.845,173.534"/>
						<path fill="#949494" d="M257.411,173.014l-26.976-8.385c0.479-0.108,0.99-0.18,1.528-0.217
							c0.324-0.027,0.638-0.041,0.941-0.041c0.07,0,0.139,0,0.209,0.001l26.976,8.386c-0.07-0.001-0.139-0.002-0.209-0.002
							c-0.302,0-0.617,0.015-0.94,0.041C258.401,172.835,257.892,172.907,257.411,173.014"/>
						<path fill="#999999" d="M260.089,172.76l-26.976-8.386c0.803,0.016,1.533,0.126,2.189,0.331l26.976,8.386
							C261.623,172.885,260.892,172.776,260.089,172.76"/>
					</g>
				</g>
			</g>
			<g enable-background="new    ">
				<g>
					<defs>
						<path id="SVGID_135_" d="M251.775,181.708l-26.976-8.386c-0.22-2.363,0.254-4.448,1.52-6.096l26.976,8.386
							C252.031,177.26,251.557,179.345,251.775,181.708z"/>
					</defs>
					<clipPath id="SVGID_136_">
						<use xlink:href="#SVGID_135_"  overflow="visible"/>
					</clipPath>
					<g clip-path="url(#SVGID_136_)" enable-background="new    ">
						<path fill="#858585" d="M251.775,181.708l-26.976-8.386c-0.22-2.363,0.254-4.448,1.52-6.096l26.976,8.386
							C252.031,177.26,251.557,179.345,251.775,181.708"/>
					</g>
				</g>
			</g>
			<g>
				<path fill="#9B5C8F" d="M439.799,156.782c11.197,0,20.111,9.291,19.932,20.74l-1.088,69.132
					c-0.18,11.463-9.387,20.741-20.583,20.741h-63.437l8.36,21.818l-37.935-21.818h-83.779c-11.197,0-20.112-9.278-19.933-20.741
					l1.089-69.132c0.091-11.362,9.299-20.74,20.496-20.74H439.799z M330.255,247.835c-0.411-8.283,0.57-19.833,3.024-34.652
					c2.549-15.285,5.57-26.282,9.137-32.831c0.732-1.371,1.024-2.742,0.952-4.375c-0.139-2.085-0.994-3.821-2.668-5.176
					c-1.479-1.222-3.111-1.853-4.903-1.853c-0.221,0-0.442,0.009-0.668,0.029c-2.566,0.175-4.553,1.458-5.917,3.996
					c-5.675,10.282-9.841,26.923-12.525,50.026c-3.227-8.722-5.913-19.005-7.944-31.094c-0.856-5.105-3.026-7.664-6.597-7.664
					c-0.184,0-0.371,0.006-0.564,0.02c-2.666,0.176-4.918,1.999-6.752,5.455l-20.055,37.92c-2.984-13.185-5.75-29.285-8.216-48.29
					c-0.5-4.388-2.728-6.589-6.677-6.589c-0.302,0-0.617,0.015-0.941,0.041c-2.496,0.175-4.377,1.094-5.643,2.814
					c-1.266,1.649-1.739,3.734-1.52,6.096c4.705,34.114,9.23,57.114,13.573,69.03c1.645,4.208,3.561,6.296,5.849,6.296
					c4.013-0.288,8.541-5.566,13.932-15.834c2.854-5.834,7.253-14.555,13.205-26.194c4.531,17.181,10.909,30.104,19.034,38.737
					c2.113,2.294,4.317,3.389,6.475,3.389c0.159,0,0.321-0.007,0.482-0.019c2.052-0.174,3.667-1.268,4.766-3.28
					C330.002,252.108,330.39,250.111,330.255,247.835 M440.729,233.557c4.738-7.832,7.18-16.378,7.326-25.742
					c0.112-7.088-1.22-13.009-3.978-17.925c-3.114-5.732-7.761-9.174-14.051-10.545c-1.674-0.365-3.282-0.54-4.791-0.54
					c-8.519,0-15.527,4.535-21.085,13.637c-4.736,7.729-7.194,16.276-7.342,25.654c-0.108,7,1.222,12.995,3.991,17.997
					c3.103,5.732,7.764,9.189,14.052,10.559c1.675,0.365,3.269,0.54,4.778,0.54C428.248,247.194,435.256,242.644,440.729,233.557
					 M385.027,233.557c4.739-7.832,7.181-16.378,7.328-25.742c0.112-7.088-1.22-13.009-3.979-17.925
					c-3.113-5.732-7.845-9.174-14.051-10.545c-1.689-0.365-3.282-0.54-4.792-0.54c-8.519,0-15.528,4.535-21.083,13.637
					c-4.753,7.729-7.195,16.276-7.342,25.654c-0.109,7,1.221,12.995,3.992,17.997c3.1,5.732,7.76,9.189,14.036,10.559
					c1.69,0.365,3.282,0.54,4.792,0.54C372.547,247.194,379.556,242.644,385.027,233.557"/>
			</g>
			<g>
				<path fill="#FFFFFF" d="M335.796,168.947c1.791,0,3.424,0.63,4.902,1.853c1.675,1.356,2.529,3.091,2.669,5.177
					c0.072,1.633-0.22,3.004-0.953,4.375c-3.566,6.549-6.586,17.545-9.136,32.831c-2.454,14.818-3.434,26.37-3.023,34.652
					c0.135,2.276-0.254,4.273-1.164,5.997c-1.099,2.011-2.713,3.106-4.765,3.28c-0.163,0.013-0.324,0.019-0.483,0.019
					c-2.159,0-4.363-1.095-6.475-3.389c-8.126-8.633-14.503-21.556-19.034-38.737c-5.952,11.639-10.35,20.36-13.205,26.194
					c-5.39,10.268-9.918,15.547-13.654,15.825c-2.565,0.01-4.481-2.079-6.127-6.287c-4.341-11.916-8.866-34.916-13.572-69.03
					c-0.219-2.362,0.254-4.448,1.52-6.096c1.266-1.721,3.147-2.639,5.643-2.814c0.323-0.025,0.64-0.041,0.94-0.041
					c3.948,0,6.177,2.201,6.677,6.589c2.466,19.004,5.232,35.106,8.216,48.291l20.056-37.921c1.833-3.456,4.086-5.278,6.751-5.454
					c0.193-0.014,0.38-0.02,0.564-0.02c3.57,0,5.74,2.559,6.596,7.664c2.032,12.089,4.717,22.372,7.944,31.094
					c2.685-23.103,6.85-39.744,12.525-50.026c1.364-2.537,3.35-3.821,5.917-3.996C335.354,168.956,335.575,168.947,335.796,168.947z
					"/>
			</g>
			<path fill="#4E2E48" d="M418.679,149.281c-0.446-0.139-0.899-0.26-1.358-0.368c-0.158-0.038-0.321-0.063-0.48-0.097
				c-0.305-0.062-0.608-0.125-0.917-0.175c-0.189-0.029-0.381-0.048-0.571-0.072c-0.287-0.037-0.574-0.074-0.866-0.099
				c-0.196-0.016-0.396-0.022-0.595-0.033c-0.215-0.012-0.427-0.032-0.643-0.037c-0.142-0.001-0.284-0.003-0.424-0.003H235.947
				c-0.72,0-1.434,0.042-2.135,0.119c-0.238,0.024-0.465,0.075-0.698,0.109c-0.463,0.066-0.93,0.132-1.384,0.23
				c-0.036,0.008-0.075,0.011-0.111,0.018c-0.237,0.052-0.463,0.133-0.696,0.195c-0.398,0.104-0.794,0.203-1.184,0.332
				c-0.284,0.093-0.558,0.208-0.837,0.314c-0.36,0.137-0.723,0.27-1.075,0.428c-0.063,0.029-0.134,0.048-0.2,0.079
				c-0.171,0.08-0.331,0.182-0.5,0.266c-0.423,0.209-0.844,0.426-1.251,0.664c-0.241,0.142-0.476,0.292-0.711,0.443
				c-0.382,0.244-0.757,0.5-1.123,0.77c-0.126,0.091-0.259,0.167-0.382,0.261c-0.095,0.075-0.181,0.165-0.278,0.24
				c-0.374,0.299-0.731,0.614-1.083,0.936c-0.184,0.171-0.374,0.336-0.555,0.514c-0.407,0.402-0.793,0.826-1.168,1.261
				c-0.102,0.118-0.211,0.226-0.309,0.345c-0.463,0.563-0.896,1.151-1.302,1.76c-0.102,0.155-0.188,0.318-0.286,0.475
				c-0.291,0.464-0.571,0.935-0.826,1.423c-0.121,0.232-0.228,0.47-0.341,0.707c-0.206,0.433-0.402,0.871-0.577,1.321
				c-0.104,0.261-0.2,0.526-0.295,0.794c-0.155,0.448-0.296,0.903-0.42,1.364c-0.076,0.271-0.151,0.54-0.215,0.814
				c-0.114,0.5-0.203,1.009-0.282,1.523c-0.038,0.242-0.087,0.479-0.117,0.724c-0.089,0.76-0.148,1.53-0.154,2.31l-1.086,69.132
				c-0.15,9.37,5.781,17.28,14.068,19.854l26.975,8.387c-8.287-2.577-14.216-10.485-14.067-19.856l1.089-69.132
				c0.006-0.781,0.062-1.548,0.153-2.307c0.031-0.25,0.08-0.494,0.119-0.741c0.078-0.507,0.166-1.01,0.279-1.503
				c0.065-0.281,0.143-0.556,0.217-0.832c0.126-0.453,0.262-0.901,0.416-1.342c0.096-0.274,0.194-0.547,0.301-0.816
				c0.174-0.438,0.365-0.865,0.566-1.29c0.118-0.246,0.229-0.495,0.354-0.736c0.247-0.471,0.519-0.926,0.799-1.375
				c0.107-0.172,0.201-0.353,0.314-0.521c0.402-0.605,0.831-1.188,1.291-1.746c0.111-0.137,0.238-0.262,0.354-0.396
				c0.361-0.415,0.73-0.823,1.12-1.21c0.189-0.186,0.389-0.359,0.586-0.539c0.341-0.313,0.688-0.62,1.05-0.91
				c0.223-0.178,0.452-0.349,0.683-0.519c0.361-0.265,0.731-0.518,1.11-0.759c0.235-0.151,0.471-0.302,0.713-0.443
				c0.41-0.239,0.831-0.456,1.256-0.667c0.232-0.115,0.459-0.236,0.695-0.342c0.353-0.158,0.714-0.291,1.076-0.428
				c0.279-0.105,0.554-0.221,0.837-0.315c0.374-0.124,0.76-0.219,1.142-0.321c0.285-0.075,0.568-0.163,0.857-0.226
				c0.44-0.095,0.889-0.156,1.339-0.223c0.243-0.036,0.485-0.089,0.733-0.116c0.702-0.075,1.414-0.117,2.134-0.117H439.8
				c0.361,0,0.718,0.022,1.074,0.04c0.196,0.01,0.391,0.017,0.584,0.033c0.301,0.025,0.598,0.063,0.896,0.102
				c0.18,0.023,0.362,0.041,0.542,0.069c0.316,0.051,0.629,0.116,0.941,0.181c0.152,0.031,0.309,0.056,0.459,0.092
				c0.46,0.107,0.914,0.229,1.359,0.368C436.662,154.872,427.672,152.075,418.679,149.281z"/>
		</g>
	</g>
</g>
</svg>
